<svg xmlns="http://www.w3.org/2000/svg" width="1280" height="519" viewBox="0 0 1280 519" fill="none">
<path opacity="0.2" d="M1083.08 1H1181.54M1083.08 1V58.4444M1083.08 1H984.615M1181.54 1V58.4444M1181.54 1H1280V58.4444M1181.54 58.4444H1083.08M1181.54 58.4444H1280M1181.54 58.4444V115.889M1083.08 58.4444V115.889M1083.08 58.4444H984.615M1280 58.4444V115.889M1181.54 115.889H1083.08M1181.54 115.889V173.333M1181.54 115.889H1280M1083.08 115.889V173.333M1083.08 115.889H984.615M1181.54 173.333H1083.08M1181.54 173.333V230.778M1181.54 173.333H1280M1083.08 173.333V230.778M1083.08 173.333H984.615M1181.54 230.778H1083.08M1181.54 230.778V288.222M1181.54 230.778H1280M1083.08 230.778V288.222M1083.08 230.778H984.615M1181.54 288.222H1083.08M1181.54 288.222V345.667M1181.54 288.222H1280M1083.08 288.222V345.667M1083.08 288.222H984.615M1181.54 345.667H1083.08M1181.54 345.667V403.111M1181.54 345.667H1280M1083.08 345.667V403.111M1083.08 345.667H984.615M1181.54 403.111H1083.08M1181.54 403.111V460.556M1181.54 403.111H1280M1083.08 403.111V460.556M1083.08 403.111H984.615M1181.54 460.556H1083.08M1181.54 460.556V518M1181.54 460.556H1280M1083.08 460.556V518M1083.08 460.556H984.615M1181.54 518H1083.08M1181.54 518H1280V460.556M1083.08 518H984.615M1280 115.889V173.333M1280 173.333V230.778M1280 230.778V288.222M1280 288.222V345.667M1280 345.667V403.111M1280 403.111V460.556M98.4615 1H0V58.4444M98.4615 1V58.4444M98.4615 1H196.923M98.4615 58.4444H0M98.4615 58.4444H196.923M98.4615 58.4444V115.889M0 58.4444V115.889M196.923 1V58.4444M196.923 1H295.385M196.923 58.4444H295.385M196.923 58.4444V115.889M295.385 1V58.4444M295.385 1H393.846M295.385 58.4444H393.846M295.385 58.4444V115.889M393.846 1V58.4444M393.846 1H492.308M393.846 58.4444H492.308M393.846 58.4444V115.889M492.308 1V58.4444M492.308 1H590.769M492.308 58.4444H590.769M492.308 58.4444V115.889M590.769 1V58.4444M590.769 1H689.231M590.769 58.4444H689.231M590.769 58.4444V115.889M689.231 1V58.4444M689.231 1H787.692M689.231 58.4444H787.692M689.231 58.4444V115.889M787.692 1V58.4444M787.692 1H886.154M787.692 58.4444H886.154M787.692 58.4444V115.889M886.154 1V58.4444M886.154 1H984.615M886.154 58.4444H984.615M886.154 58.4444V115.889M984.615 1V58.4444M984.615 58.4444V115.889M98.4615 115.889H0M98.4615 115.889V173.333M98.4615 115.889H196.923M0 115.889V173.333M98.4615 173.333H0M98.4615 173.333V230.778M98.4615 173.333H196.923M0 173.333V230.778M98.4615 230.778H0M98.4615 230.778V288.222M98.4615 230.778H196.923M0 230.778V288.222M98.4615 288.222H0M98.4615 288.222V345.667M98.4615 288.222H196.923M0 288.222V345.667M98.4615 345.667H0M98.4615 345.667V403.111M98.4615 345.667H196.923M0 345.667V403.111M98.4615 403.111H0M98.4615 403.111V460.556M98.4615 403.111H196.923M0 403.111V460.556M98.4615 460.556H0M98.4615 460.556V518M98.4615 460.556H196.923M0 460.556V518H98.4615M98.4615 518H196.923M196.923 115.889V173.333M196.923 115.889H295.385M196.923 173.333V230.778M196.923 173.333H295.385M196.923 230.778V288.222M196.923 230.778H295.385M196.923 288.222V345.667M196.923 288.222H295.385M196.923 345.667V403.111M196.923 345.667H295.385M196.923 403.111V460.556M196.923 403.111H295.385M196.923 460.556V518M196.923 460.556H295.385M196.923 518H295.385M295.385 115.889V173.333M295.385 115.889H393.846M295.385 173.333V230.778M295.385 173.333H393.846M295.385 230.778V288.222M295.385 230.778H393.846M295.385 288.222V345.667M295.385 288.222H393.846M295.385 345.667V403.111M295.385 345.667H393.846M295.385 403.111V460.556M295.385 403.111H393.846M295.385 460.556V518M295.385 460.556H393.846M295.385 518H393.846M393.846 115.889V173.333M393.846 115.889H492.308M393.846 173.333V230.778M393.846 173.333H492.308M393.846 230.778V288.222M393.846 230.778H492.308M393.846 288.222V345.667M393.846 288.222H492.308M393.846 345.667V403.111M393.846 345.667H492.308M393.846 403.111V460.556M393.846 403.111H492.308M393.846 460.556V518M393.846 460.556H492.308M393.846 518H492.308M492.308 115.889V173.333M492.308 115.889H590.769M492.308 173.333V230.778M492.308 173.333H590.769M492.308 230.778V288.222M492.308 230.778H590.769M492.308 288.222V345.667M492.308 288.222H590.769M492.308 345.667V403.111M492.308 345.667H590.769M492.308 403.111V460.556M492.308 403.111H590.769M492.308 460.556V518M492.308 460.556H590.769M492.308 518H590.769M590.769 115.889V173.333M590.769 115.889H689.231M590.769 173.333V230.778M590.769 173.333H689.231M590.769 230.778V288.222M590.769 230.778H689.231M590.769 288.222V345.667M590.769 288.222H689.231M590.769 345.667V403.111M590.769 345.667H689.231M590.769 403.111V460.556M590.769 403.111H689.231M590.769 460.556V518M590.769 460.556H689.231M590.769 518H689.231M689.231 115.889V173.333M689.231 115.889H787.692M689.231 173.333V230.778M689.231 173.333H787.692M689.231 230.778V288.222M689.231 230.778H787.692M689.231 288.222V345.667M689.231 288.222H787.692M689.231 345.667V403.111M689.231 345.667H787.692M689.231 403.111V460.556M689.231 403.111H787.692M689.231 460.556V518M689.231 460.556H787.692M689.231 518H787.692M787.692 115.889V173.333M787.692 115.889H886.154M787.692 173.333V230.778M787.692 173.333H886.154M787.692 230.778V288.222M787.692 230.778H886.154M787.692 288.222V345.667M787.692 288.222H886.154M787.692 345.667V403.111M787.692 345.667H886.154M787.692 403.111V460.556M787.692 403.111H886.154M787.692 460.556V518M787.692 460.556H886.154M787.692 518H886.154M886.154 115.889V173.333M886.154 115.889H984.615M886.154 173.333V230.778M886.154 173.333H984.615M886.154 230.778V288.222M886.154 230.778H984.615M886.154 288.222V345.667M886.154 288.222H984.615M886.154 345.667V403.111M886.154 345.667H984.615M886.154 403.111V460.556M886.154 403.111H984.615M886.154 460.556V518M886.154 460.556H984.615M886.154 518H984.615M984.615 115.889V173.333M984.615 173.333V230.778M984.615 230.778V288.222M984.615 288.222V345.667M984.615 345.667V403.111M984.615 403.111V460.556M984.615 460.556V518" stroke="url(#paint0_radial_602_150)" stroke-opacity="0.8" stroke-width="1.85684"/>
<defs>
<radialGradient id="paint0_radial_602_150" cx="0" cy="0" r="1" gradientUnits="userSpaceOnUse" gradientTransform="translate(640 259.5) rotate(90) scale(258.5 640)">
<stop stop-color="white"/>
<stop offset="1" stop-color="white" stop-opacity="0"/>
</radialGradient>
</defs>
</svg>