<svg width="289" height="67" viewBox="0 0 289 67" fill="none" xmlns="http://www.w3.org/2000/svg">
<g opacity="0.12">
<mask id="path-1-outside-1_602_124" maskUnits="userSpaceOnUse" x="-1" y="-1" width="291" height="69" fill="black">
<rect fill="white" x="-1" y="-1" width="291" height="69"/>
<path d="M54.1 13.97L31.15 47.72H30.79L7.84 14.06V65H0.910001V2H8.11L31.06 36.38L54.01 2H61.21V65H54.1V13.97ZM81.9748 8.3H74.0548V0.649997H81.9748V8.3ZM81.4348 65H74.5048V18.47H81.4348V65ZM125.467 51.95C125.467 54.17 125.017 56.15 124.117 57.89C123.277 59.57 122.107 61.01 120.607 62.21C119.167 63.41 117.427 64.34 115.387 65C113.407 65.6 111.247 65.9 108.907 65.9C105.547 65.9 102.157 65.3 98.7373 64.1C95.3173 62.84 92.2873 61.16 89.6473 59.06L93.1573 54.11C95.6773 56.03 98.2873 57.5 100.987 58.52C103.747 59.54 106.507 60.05 109.267 60.05C112.087 60.05 114.397 59.39 116.197 58.07C117.997 56.75 118.897 54.95 118.897 52.67V52.49C118.897 51.35 118.567 50.36 117.907 49.52C117.307 48.68 116.467 47.96 115.387 47.36C114.307 46.7 113.047 46.13 111.607 45.65C110.227 45.17 108.787 44.72 107.287 44.3C105.487 43.76 103.657 43.19 101.797 42.59C99.9973 41.93 98.3473 41.12 96.8473 40.16C95.4073 39.2 94.2073 38 93.2473 36.56C92.3473 35.12 91.8973 33.32 91.8973 31.16V30.98C91.8973 29 92.2873 27.2 93.0673 25.58C93.8473 23.9 94.9273 22.49 96.3073 21.35C97.7473 20.15 99.4273 19.25 101.347 18.65C103.327 17.99 105.457 17.66 107.737 17.66C110.617 17.66 113.527 18.14 116.467 19.1C119.407 20 122.077 21.23 124.477 22.79L121.327 28.01C119.167 26.63 116.887 25.55 114.487 24.77C112.147 23.93 109.837 23.51 107.557 23.51C104.797 23.51 102.607 24.17 100.987 25.49C99.3673 26.75 98.5573 28.34 98.5573 30.26V30.44C98.5573 31.52 98.8873 32.48 99.5473 33.32C100.207 34.1 101.077 34.79 102.157 35.39C103.297 35.99 104.587 36.53 106.027 37.01C107.467 37.49 108.967 37.97 110.527 38.45C112.327 38.99 114.097 39.59 115.837 40.25C117.637 40.91 119.257 41.75 120.697 42.77C122.137 43.79 123.277 45.02 124.117 46.46C125.017 47.9 125.467 49.67 125.467 51.77V51.95ZM165.413 51.95C165.413 54.17 164.963 56.15 164.063 57.89C163.223 59.57 162.053 61.01 160.553 62.21C159.113 63.41 157.373 64.34 155.333 65C153.353 65.6 151.193 65.9 148.853 65.9C145.493 65.9 142.103 65.3 138.683 64.1C135.263 62.84 132.233 61.16 129.593 59.06L133.103 54.11C135.623 56.03 138.233 57.5 140.933 58.52C143.693 59.54 146.453 60.05 149.213 60.05C152.033 60.05 154.343 59.39 156.143 58.07C157.943 56.75 158.843 54.95 158.843 52.67V52.49C158.843 51.35 158.513 50.36 157.853 49.52C157.253 48.68 156.413 47.96 155.333 47.36C154.253 46.7 152.993 46.13 151.553 45.65C150.173 45.17 148.733 44.72 147.233 44.3C145.433 43.76 143.603 43.19 141.743 42.59C139.943 41.93 138.293 41.12 136.793 40.16C135.353 39.2 134.153 38 133.193 36.56C132.293 35.12 131.843 33.32 131.843 31.16V30.98C131.843 29 132.233 27.2 133.013 25.58C133.793 23.9 134.873 22.49 136.253 21.35C137.693 20.15 139.373 19.25 141.293 18.65C143.273 17.99 145.403 17.66 147.683 17.66C150.563 17.66 153.473 18.14 156.413 19.1C159.353 20 162.023 21.23 164.423 22.79L161.273 28.01C159.113 26.63 156.833 25.55 154.433 24.77C152.093 23.93 149.783 23.51 147.503 23.51C144.743 23.51 142.553 24.17 140.933 25.49C139.313 26.75 138.503 28.34 138.503 30.26V30.44C138.503 31.52 138.833 32.48 139.493 33.32C140.153 34.1 141.023 34.79 142.103 35.39C143.243 35.99 144.533 36.53 145.973 37.01C147.413 37.49 148.913 37.97 150.473 38.45C152.273 38.99 154.043 39.59 155.783 40.25C157.583 40.91 159.203 41.75 160.643 42.77C162.083 43.79 163.223 45.02 164.063 46.46C164.963 47.9 165.413 49.67 165.413 51.77V51.95ZM182.387 8.3H174.467V0.649997H182.387V8.3ZM181.847 65H174.917V18.47H181.847V65ZM239.559 41.69C239.559 44.99 238.929 48.14 237.669 51.14C236.469 54.08 234.789 56.66 232.629 58.88C230.469 61.1 227.889 62.87 224.889 64.19C221.889 65.45 218.649 66.08 215.169 66.08C211.689 66.08 208.479 65.45 205.539 64.19C202.599 62.87 200.049 61.13 197.889 58.97C195.729 56.75 194.049 54.17 192.849 51.23C191.649 48.29 191.049 45.17 191.049 41.87C191.049 38.57 191.649 35.45 192.849 32.51C194.049 29.51 195.729 26.9 197.889 24.68C200.049 22.46 202.599 20.72 205.539 19.46C208.539 18.14 211.809 17.48 215.349 17.48C218.829 17.48 222.039 18.14 224.979 19.46C227.979 20.72 230.559 22.46 232.719 24.68C234.879 26.84 236.559 29.39 237.759 32.33C238.959 35.27 239.559 38.39 239.559 41.69ZM232.449 41.87C232.449 39.35 231.999 36.98 231.099 34.76C230.259 32.54 229.059 30.62 227.499 29C225.939 27.32 224.109 26 222.009 25.04C219.909 24.08 217.629 23.6 215.169 23.6C212.649 23.6 210.339 24.08 208.239 25.04C206.139 25.94 204.339 27.23 202.839 28.91C201.399 30.53 200.259 32.45 199.419 34.67C198.579 36.83 198.159 39.17 198.159 41.69C198.159 44.21 198.579 46.58 199.419 48.8C200.319 51.02 201.519 52.94 203.019 54.56C204.579 56.18 206.409 57.47 208.509 58.43C210.609 59.39 212.889 59.87 215.349 59.87C217.869 59.87 220.179 59.42 222.279 58.52C224.379 57.56 226.179 56.27 227.679 54.65C229.179 53.03 230.349 51.14 231.189 48.98C232.029 46.76 232.449 44.39 232.449 41.87ZM255.043 38.36V65H248.113V18.47H255.043V26.57C256.603 24.05 258.643 21.92 261.163 20.18C263.683 18.38 266.953 17.48 270.973 17.48C273.793 17.48 276.283 17.93 278.443 18.83C280.663 19.73 282.523 21.02 284.023 22.7C285.583 24.32 286.753 26.27 287.533 28.55C288.373 30.83 288.793 33.35 288.793 36.11V65H281.863V37.82C281.863 33.5 280.753 30.08 278.533 27.56C276.313 25.04 273.133 23.78 268.993 23.78C267.013 23.78 265.153 24.14 263.413 24.86C261.733 25.52 260.263 26.51 259.003 27.83C257.743 29.09 256.753 30.62 256.033 32.42C255.373 34.22 255.043 36.2 255.043 38.36Z"/>
</mask>
<path d="M54.1 13.97H55.1V10.721L53.2731 13.4077L54.1 13.97ZM31.15 47.72V48.72H31.6793L31.9769 48.2823L31.15 47.72ZM30.79 47.72L29.9638 48.2833L30.2615 48.72H30.79V47.72ZM7.84 14.06L8.66623 13.4967L6.84 10.8182V14.06H7.84ZM7.84 65V66H8.84V65H7.84ZM0.910001 65H-0.0899992V66H0.910001V65ZM0.910001 2V0.999996H-0.0899992V2H0.910001ZM8.11 2L8.94172 1.44479L8.6448 0.999996H8.11V2ZM31.06 36.38L30.2283 36.9352L31.06 38.1811L31.8917 36.9352L31.06 36.38ZM54.01 2V0.999996H53.4752L53.1783 1.44479L54.01 2ZM61.21 2H62.21V0.999996H61.21V2ZM61.21 65V66H62.21V65H61.21ZM54.1 65H53.1V66H54.1V65ZM53.2731 13.4077L30.3231 47.1577L31.9769 48.2823L54.9269 14.5323L53.2731 13.4077ZM31.15 46.72H30.79V48.72H31.15V46.72ZM31.6162 47.1567L8.66623 13.4967L7.01377 14.6233L29.9638 48.2833L31.6162 47.1567ZM6.84 14.06V65H8.84V14.06H6.84ZM7.84 64H0.910001V66H7.84V64ZM1.91 65V2H-0.0899992V65H1.91ZM0.910001 3H8.11V0.999996H0.910001V3ZM7.27829 2.5552L30.2283 36.9352L31.8917 35.8248L8.94172 1.44479L7.27829 2.5552ZM31.8917 36.9352L54.8417 2.5552L53.1783 1.44479L30.2283 35.8248L31.8917 36.9352ZM54.01 3H61.21V0.999996H54.01V3ZM60.21 2V65H62.21V2H60.21ZM61.21 64H54.1V66H61.21V64ZM55.1 65V13.97H53.1V65H55.1ZM81.9748 8.3V9.3H82.9748V8.3H81.9748ZM74.0548 8.3H73.0548V9.3H74.0548V8.3ZM74.0548 0.649998V-0.350002H73.0548V0.649998H74.0548ZM81.9748 0.649998H82.9748V-0.350002H81.9748V0.649998ZM81.4348 65V66H82.4348V65H81.4348ZM74.5048 65H73.5048V66H74.5048V65ZM74.5048 18.47V17.47H73.5048V18.47H74.5048ZM81.4348 18.47H82.4348V17.47H81.4348V18.47ZM81.9748 7.3H74.0548V9.3H81.9748V7.3ZM75.0548 8.3V0.649998H73.0548V8.3H75.0548ZM74.0548 1.65H81.9748V-0.350002H74.0548V1.65ZM80.9748 0.649998V8.3H82.9748V0.649998H80.9748ZM81.4348 64H74.5048V66H81.4348V64ZM75.5048 65V18.47H73.5048V65H75.5048ZM74.5048 19.47H81.4348V17.47H74.5048V19.47ZM80.4348 18.47V65H82.4348V18.47H80.4348ZM124.117 57.89L123.229 57.4305L123.223 57.4428L124.117 57.89ZM120.607 62.21L119.983 61.4291L119.975 61.4354L119.967 61.4418L120.607 62.21ZM115.387 65L115.677 65.957L115.686 65.9543L115.695 65.9514L115.387 65ZM98.7373 64.1L98.3916 65.0383L98.3989 65.041L98.4063 65.0436L98.7373 64.1ZM89.6473 59.06L88.8316 58.4816L88.2842 59.2535L89.0248 59.8426L89.6473 59.06ZM93.1573 54.11L93.7634 53.3146L92.9402 52.6874L92.3416 53.5316L93.1573 54.11ZM100.987 58.52L100.634 59.4555L100.641 59.458L100.987 58.52ZM116.197 58.07L115.606 57.2636L116.197 58.07ZM117.907 49.52L117.094 50.1012L117.107 50.1198L117.121 50.1378L117.907 49.52ZM115.387 47.36L114.866 48.2133L114.884 48.2241L114.902 48.2342L115.387 47.36ZM111.607 45.65L111.279 46.5946L111.291 46.5987L111.607 45.65ZM107.287 44.3L107 45.2578L107.009 45.2605L107.018 45.263L107.287 44.3ZM101.797 42.59L101.453 43.5289L101.472 43.5357L101.49 43.5417L101.797 42.59ZM96.8473 40.16L96.2926 40.9921L96.3004 40.9972L96.3083 41.0023L96.8473 40.16ZM93.2473 36.56L92.3993 37.09L92.4071 37.1025L92.4153 37.1147L93.2473 36.56ZM93.0673 25.58L93.9684 26.0139L93.9743 26.0011L93.0673 25.58ZM96.3073 21.35L96.9442 22.121L96.9475 22.1182L96.3073 21.35ZM101.347 18.65L101.646 19.6045L101.655 19.6017L101.664 19.5987L101.347 18.65ZM116.467 19.1L116.157 20.0506L116.166 20.0535L116.175 20.0562L116.467 19.1ZM124.477 22.79L125.334 23.3067L125.833 22.4786L125.022 21.9516L124.477 22.79ZM121.327 28.01L120.789 28.8527L121.653 29.405L122.184 28.5267L121.327 28.01ZM114.487 24.77L114.149 25.7112L114.164 25.7163L114.178 25.721L114.487 24.77ZM100.987 25.49L101.601 26.2794L101.61 26.2724L101.619 26.2652L100.987 25.49ZM99.5473 33.32L98.761 33.9378L98.7722 33.9521L98.784 33.9659L99.5473 33.32ZM102.157 35.39L101.672 36.2642L101.682 36.2696L101.692 36.2749L102.157 35.39ZM106.027 37.01L106.344 36.0613L106.027 37.01ZM110.527 38.45L110.233 39.4058L110.24 39.4078L110.527 38.45ZM115.837 40.25L115.483 41.1851L115.493 41.1889L115.837 40.25ZM120.697 42.77L120.119 43.586L120.697 42.77ZM124.117 46.46L123.254 46.9639L123.261 46.9771L123.269 46.99L124.117 46.46ZM124.467 51.95C124.467 54.0316 124.046 55.8505 123.229 57.4306L125.006 58.3494C125.988 56.4495 126.467 54.3084 126.467 51.95H124.467ZM123.223 57.4428C122.449 58.9904 121.372 60.3174 119.983 61.4291L121.232 62.9909C122.842 61.7026 124.106 60.1496 125.012 58.3372L123.223 57.4428ZM119.967 61.4418C118.638 62.5492 117.015 63.4222 115.08 64.0486L115.695 65.9514C117.839 65.2578 119.696 64.2708 121.248 62.9782L119.967 61.4418ZM115.097 64.043C113.223 64.611 111.162 64.9 108.907 64.9V66.9C111.333 66.9 113.592 66.589 115.677 65.957L115.097 64.043ZM108.907 64.9C105.669 64.9 102.39 64.322 99.0684 63.1564L98.4063 65.0436C101.924 66.278 105.426 66.9 108.907 66.9V64.9ZM99.0831 63.1617C95.755 61.9355 92.82 60.3059 90.2699 58.2774L89.0248 59.8426C91.7547 62.0141 94.8797 63.7445 98.3916 65.0383L99.0831 63.1617ZM90.4631 59.6384L93.9731 54.6884L92.3416 53.5316L88.8316 58.4816L90.4631 59.6384ZM92.5513 54.9054C95.1408 56.8784 97.835 58.3981 100.634 59.4555L101.341 57.5845C98.7397 56.6019 96.2138 55.1816 93.7634 53.3146L92.5513 54.9054ZM100.641 59.458C103.504 60.5163 106.381 61.05 109.267 61.05V59.05C106.633 59.05 103.99 58.5637 101.334 57.582L100.641 59.458ZM109.267 61.05C112.244 61.05 114.777 60.3519 116.789 58.8764L115.606 57.2636C114.018 58.4281 111.931 59.05 109.267 59.05V61.05ZM116.789 58.8764C118.852 57.3633 119.897 55.2605 119.897 52.67H117.897C117.897 54.6395 117.143 56.1367 115.606 57.2636L116.789 58.8764ZM119.897 52.67V52.49H117.897V52.67H119.897ZM119.897 52.49C119.897 51.142 119.502 49.9306 118.694 48.9022L117.121 50.1378C117.633 50.7894 117.897 51.558 117.897 52.49H119.897ZM118.721 48.9388C118.019 47.9565 117.058 47.1439 115.873 46.4858L114.902 48.2342C115.877 48.7761 116.595 49.4035 117.094 50.1012L118.721 48.9388ZM115.909 46.5067C114.753 45.8004 113.422 45.2007 111.924 44.7013L111.291 46.5987C112.673 47.0593 113.862 47.5996 114.866 48.2133L115.909 46.5067ZM111.936 44.7055C110.535 44.2183 109.076 43.7622 107.557 43.337L107.018 45.263C108.499 45.6778 109.919 46.1217 111.279 46.5945L111.936 44.7055ZM107.575 43.3422C105.782 42.8042 103.958 42.2363 102.104 41.6383L101.49 43.5417C103.357 44.1437 105.193 44.7158 107 45.2578L107.575 43.3422ZM102.142 41.6511C100.405 41.0143 98.8207 40.2357 97.3864 39.3177L96.3083 41.0023C97.874 42.0043 99.59 42.8457 101.453 43.5289L102.142 41.6511ZM97.402 39.3279C96.0719 38.4412 94.9662 37.3354 94.0794 36.0053L92.4153 37.1147C93.4485 38.6646 94.7428 39.9588 96.2926 40.9921L97.402 39.3279ZM94.0953 36.03C93.3184 34.7869 92.8973 33.183 92.8973 31.16H90.8973C90.8973 33.457 91.3763 35.4531 92.3993 37.09L94.0953 36.03ZM92.8973 31.16V30.98H90.8973V31.16H92.8973ZM92.8973 30.98C92.8973 29.1348 93.2599 27.4853 93.9683 26.0138L92.1663 25.1462C91.3148 26.9147 90.8973 28.8652 90.8973 30.98H92.8973ZM93.9743 26.0011C94.6938 24.4516 95.6833 23.1626 96.9442 22.121L95.6705 20.579C94.1714 21.8174 93.0009 23.3484 92.1603 25.1589L93.9743 26.0011ZM96.9475 22.1182C98.2797 21.0081 99.8414 20.1683 101.646 19.6045L101.049 17.6955C99.0132 18.3317 97.215 19.2919 95.6672 20.5818L96.9475 22.1182ZM101.664 19.5987C103.533 18.9757 105.555 18.66 107.737 18.66V16.66C105.36 16.66 103.122 17.0043 101.031 17.7013L101.664 19.5987ZM107.737 18.66C110.504 18.66 113.31 19.1209 116.157 20.0506L116.778 18.1494C113.745 17.1591 110.73 16.66 107.737 16.66V18.66ZM116.175 20.0562C119.032 20.9309 121.616 22.1229 123.932 23.6284L125.022 21.9516C122.539 20.3371 119.783 19.0691 116.76 18.1438L116.175 20.0562ZM123.621 22.2733L120.471 27.4933L122.184 28.5267L125.334 23.3067L123.621 22.2733ZM121.866 27.1673C119.635 25.7423 117.278 24.6256 114.796 23.819L114.178 25.721C116.496 26.4744 118.699 27.5177 120.789 28.8527L121.866 27.1673ZM114.825 23.8288C112.387 22.9534 109.962 22.51 107.557 22.51V24.51C109.712 24.51 111.908 24.9066 114.149 25.7112L114.825 23.8288ZM107.557 22.51C104.642 22.51 102.204 23.2085 100.356 24.7148L101.619 26.2652C103.01 25.1315 104.953 24.51 107.557 24.51V22.51ZM100.373 24.7006C98.5292 26.135 97.5573 28.0076 97.5573 30.26H99.5573C99.5573 28.6724 100.205 27.365 101.601 26.2794L100.373 24.7006ZM97.5573 30.26V30.44H99.5573V30.26H97.5573ZM97.5573 30.44C97.5573 31.7414 97.961 32.9195 98.761 33.9378L100.334 32.7022C99.8137 32.0405 99.5573 31.2986 99.5573 30.44H97.5573ZM98.784 33.9659C99.5364 34.8552 100.508 35.6174 101.672 36.2642L102.643 34.5158C101.647 33.9626 100.878 33.3448 100.311 32.6741L98.784 33.9659ZM101.692 36.2749C102.887 36.9042 104.228 37.4645 105.711 37.9587L106.344 36.0613C104.946 35.5955 103.707 35.0758 102.623 34.5051L101.692 36.2749ZM105.711 37.9587C107.159 38.4413 108.666 38.9237 110.233 39.4058L110.821 37.4942C109.268 37.0163 107.776 36.5387 106.344 36.0613L105.711 37.9587ZM110.24 39.4078C112.018 39.9411 113.765 40.5335 115.483 41.185L116.192 39.315C114.43 38.6465 112.637 38.0389 110.815 37.4922L110.24 39.4078ZM115.493 41.1889C117.217 41.821 118.757 42.6213 120.119 43.586L121.275 41.954C119.757 40.8787 118.057 39.999 116.182 39.3111L115.493 41.1889ZM120.119 43.586C121.45 44.5285 122.49 45.6543 123.254 46.9639L124.981 45.9561C124.065 44.3857 122.825 43.0515 121.275 41.954L120.119 43.586ZM123.269 46.99C124.049 48.2373 124.467 49.8131 124.467 51.77H126.467C126.467 49.5269 125.986 47.5627 124.965 45.93L123.269 46.99ZM124.467 51.77V51.95H126.467V51.77H124.467ZM164.063 57.89L163.174 57.4305L163.168 57.4428L164.063 57.89ZM160.553 62.21L159.928 61.4291L159.92 61.4354L159.912 61.4418L160.553 62.21ZM155.333 65L155.623 65.957L155.632 65.9543L155.64 65.9514L155.333 65ZM138.683 64.1L138.337 65.0383L138.344 65.041L138.352 65.0436L138.683 64.1ZM129.593 59.06L128.777 58.4816L128.23 59.2535L128.97 59.8426L129.593 59.06ZM133.103 54.11L133.709 53.3146L132.886 52.6874L132.287 53.5316L133.103 54.11ZM140.933 58.52L140.579 59.4555L140.586 59.458L140.933 58.52ZM156.143 58.07L155.551 57.2636L156.143 58.07ZM157.853 49.52L157.039 50.1012L157.052 50.1198L157.066 50.1378L157.853 49.52ZM155.333 47.36L154.811 48.2133L154.829 48.2241L154.847 48.2342L155.333 47.36ZM151.553 45.65L151.224 46.5946L151.236 46.5987L151.553 45.65ZM147.233 44.3L146.945 45.2578L146.954 45.2605L146.963 45.263L147.233 44.3ZM141.743 42.59L141.398 43.5289L141.417 43.5357L141.436 43.5417L141.743 42.59ZM136.793 40.16L136.238 40.9921L136.246 40.9972L136.254 41.0023L136.793 40.16ZM133.193 36.56L132.345 37.09L132.352 37.1025L132.361 37.1147L133.193 36.56ZM133.013 25.58L133.914 26.0139L133.92 26.0011L133.013 25.58ZM136.253 21.35L136.89 22.121L136.893 22.1182L136.253 21.35ZM141.293 18.65L141.591 19.6045L141.6 19.6017L141.609 19.5987L141.293 18.65ZM156.413 19.1L156.102 20.0506L156.111 20.0535L156.12 20.0562L156.413 19.1ZM164.423 22.79L165.279 23.3067L165.779 22.4786L164.968 21.9516L164.423 22.79ZM161.273 28.01L160.734 28.8527L161.599 29.405L162.129 28.5267L161.273 28.01ZM154.433 24.77L154.095 25.7112L154.109 25.7163L154.124 25.721L154.433 24.77ZM140.933 25.49L141.547 26.2794L141.556 26.2724L141.564 26.2652L140.933 25.49ZM139.493 33.32L138.706 33.9378L138.718 33.9521L138.729 33.9659L139.493 33.32ZM142.103 35.39L141.617 36.2642L141.627 36.2696L141.637 36.2749L142.103 35.39ZM145.973 37.01L146.289 36.0613L145.973 37.01ZM150.473 38.45L150.179 39.4058L150.185 39.4078L150.473 38.45ZM155.783 40.25L155.428 41.1851L155.438 41.1889L155.783 40.25ZM160.643 42.77L160.065 43.586L160.643 42.77ZM164.063 46.46L163.199 46.9639L163.207 46.9771L163.215 46.99L164.063 46.46ZM164.413 51.95C164.413 54.0316 163.992 55.8505 163.174 57.4306L164.951 58.3494C165.934 56.4495 166.413 54.3084 166.413 51.95H164.413ZM163.168 57.4428C162.394 58.9904 161.318 60.3174 159.928 61.4291L161.177 62.9909C162.788 61.7026 164.051 60.1496 164.957 58.3372L163.168 57.4428ZM159.912 61.4418C158.584 62.5492 156.961 63.4222 155.025 64.0486L155.64 65.9514C157.785 65.2578 159.642 64.2708 161.193 62.9782L159.912 61.4418ZM155.043 64.043C153.168 64.611 151.107 64.9 148.853 64.9V66.9C151.278 66.9 153.537 66.589 155.623 65.957L155.043 64.043ZM148.853 64.9C145.614 64.9 142.336 64.322 139.014 63.1564L138.352 65.0436C141.87 66.278 145.371 66.9 148.853 66.9V64.9ZM139.028 63.1617C135.7 61.9355 132.765 60.3059 130.215 58.2774L128.97 59.8426C131.7 62.0141 134.825 63.7445 138.337 65.0383L139.028 63.1617ZM130.408 59.6384L133.918 54.6884L132.287 53.5316L128.777 58.4816L130.408 59.6384ZM132.497 54.9054C135.086 56.8784 137.78 58.3981 140.579 59.4555L141.286 57.5845C138.685 56.6019 136.159 55.1816 133.709 53.3146L132.497 54.9054ZM140.586 59.458C143.45 60.5163 146.327 61.05 149.213 61.05V59.05C146.579 59.05 143.936 58.5637 141.279 57.582L140.586 59.458ZM149.213 61.05C152.189 61.05 154.722 60.3519 156.734 58.8764L155.551 57.2636C153.963 58.4281 151.876 59.05 149.213 59.05V61.05ZM156.734 58.8764C158.797 57.3633 159.843 55.2605 159.843 52.67H157.843C157.843 54.6395 157.088 56.1367 155.551 57.2636L156.734 58.8764ZM159.843 52.67V52.49H157.843V52.67H159.843ZM159.843 52.49C159.843 51.142 159.447 49.9306 158.639 48.9022L157.066 50.1378C157.578 50.7894 157.843 51.558 157.843 52.49H159.843ZM158.666 48.9388C157.965 47.9565 157.003 47.1439 155.818 46.4858L154.847 48.2342C155.822 48.7761 156.541 49.4035 157.039 50.1012L158.666 48.9388ZM155.854 46.5067C154.698 45.8004 153.367 45.2007 151.869 44.7013L151.236 46.5987C152.618 47.0593 153.807 47.5996 154.811 48.2133L155.854 46.5067ZM151.881 44.7055C150.481 44.2183 149.021 43.7622 147.502 43.337L146.963 45.263C148.445 45.6778 149.865 46.1217 151.224 46.5945L151.881 44.7055ZM147.52 43.3422C145.727 42.8042 143.903 42.2363 142.05 41.6383L141.436 43.5417C143.302 44.1437 145.138 44.7158 146.945 45.2578L147.52 43.3422ZM142.087 41.6511C140.35 41.0143 138.766 40.2357 137.332 39.3177L136.254 41.0023C137.819 42.0043 139.535 42.8457 141.398 43.5289L142.087 41.6511ZM137.347 39.3279C136.017 38.4412 134.911 37.3354 134.025 36.0053L132.361 37.1147C133.394 38.6646 134.688 39.9588 136.238 40.9921L137.347 39.3279ZM134.041 36.03C133.264 34.7869 132.843 33.183 132.843 31.16H130.843C130.843 33.457 131.322 35.4531 132.345 37.09L134.041 36.03ZM132.843 31.16V30.98H130.843V31.16H132.843ZM132.843 30.98C132.843 29.1348 133.205 27.4853 133.914 26.0138L132.112 25.1462C131.26 26.9147 130.843 28.8652 130.843 30.98H132.843ZM133.92 26.0011C134.639 24.4516 135.629 23.1626 136.89 22.121L135.616 20.579C134.117 21.8174 132.946 23.3484 132.106 25.1589L133.92 26.0011ZM136.893 22.1182C138.225 21.0081 139.787 20.1683 141.591 19.6045L140.994 17.6955C138.959 18.3317 137.16 19.2919 135.612 20.5818L136.893 22.1182ZM141.609 19.5987C143.478 18.9757 145.5 18.66 147.683 18.66V16.66C145.305 16.66 143.067 17.0043 140.976 17.7013L141.609 19.5987ZM147.683 18.66C150.45 18.66 153.255 19.1209 156.102 20.0506L156.723 18.1494C153.69 17.1591 150.676 16.66 147.683 16.66V18.66ZM156.12 20.0562C158.977 20.9309 161.561 22.1229 163.878 23.6284L164.968 21.9516C162.484 20.3371 159.728 19.0691 156.705 18.1438L156.12 20.0562ZM163.566 22.2733L160.416 27.4933L162.129 28.5267L165.279 23.3067L163.566 22.2733ZM161.811 27.1673C159.581 25.7423 157.224 24.6256 154.742 23.819L154.124 25.721C156.442 26.4744 158.645 27.5177 160.734 28.8527L161.811 27.1673ZM154.771 23.8288C152.332 22.9534 149.908 22.51 147.503 22.51V24.51C149.658 24.51 151.853 24.9066 154.095 25.7112L154.771 23.8288ZM147.503 22.51C144.587 22.51 142.15 23.2085 140.301 24.7148L141.564 26.2652C142.956 25.1315 144.898 24.51 147.503 24.51V22.51ZM140.319 24.7006C138.475 26.135 137.503 28.0076 137.503 30.26H139.503C139.503 28.6724 140.151 27.365 141.547 26.2794L140.319 24.7006ZM137.503 30.26V30.44H139.503V30.26H137.503ZM137.503 30.44C137.503 31.7414 137.906 32.9195 138.706 33.9378L140.279 32.7022C139.759 32.0405 139.503 31.2986 139.503 30.44H137.503ZM138.729 33.9659C139.482 34.8552 140.453 35.6174 141.617 36.2642L142.588 34.5158C141.592 33.9626 140.824 33.3448 140.256 32.6741L138.729 33.9659ZM141.637 36.2749C142.833 36.9042 144.174 37.4645 145.656 37.9587L146.289 36.0613C144.892 35.5955 143.653 35.0758 142.568 34.5051L141.637 36.2749ZM145.656 37.9587C147.104 38.4413 148.612 38.9237 150.179 39.4058L150.767 37.4942C149.214 37.0163 147.721 36.5387 146.289 36.0613L145.656 37.9587ZM150.185 39.4078C151.963 39.9411 153.71 40.5335 155.428 41.185L156.137 39.315C154.375 38.6465 152.582 38.0389 150.76 37.4922L150.185 39.4078ZM155.438 41.1889C157.163 41.821 158.703 42.6213 160.065 43.586L161.221 41.954C159.703 40.8787 158.003 39.999 156.127 39.3111L155.438 41.1889ZM160.065 43.586C161.395 44.5285 162.435 45.6543 163.199 46.9639L164.926 45.9561C164.01 44.3857 162.77 43.0515 161.221 41.954L160.065 43.586ZM163.215 46.99C163.994 48.2373 164.413 49.8131 164.413 51.77H166.413C166.413 49.5269 165.931 47.5627 164.911 45.93L163.215 46.99ZM164.413 51.77V51.95H166.413V51.77H164.413ZM182.387 8.3V9.3H183.387V8.3H182.387ZM174.467 8.3H173.467V9.3H174.467V8.3ZM174.467 0.649998V-0.350002H173.467V0.649998H174.467ZM182.387 0.649998H183.387V-0.350002H182.387V0.649998ZM181.847 65V66H182.847V65H181.847ZM174.917 65H173.917V66H174.917V65ZM174.917 18.47V17.47H173.917V18.47H174.917ZM181.847 18.47H182.847V17.47H181.847V18.47ZM182.387 7.3H174.467V9.3H182.387V7.3ZM175.467 8.3V0.649998H173.467V8.3H175.467ZM174.467 1.65H182.387V-0.350002H174.467V1.65ZM181.387 0.649998V8.3H183.387V0.649998H181.387ZM181.847 64H174.917V66H181.847V64ZM175.917 65V18.47H173.917V65H175.917ZM174.917 19.47H181.847V17.47H174.917V19.47ZM180.847 18.47V65H182.847V18.47H180.847ZM237.669 51.14L236.747 50.7527L236.744 50.7621L237.669 51.14ZM232.629 58.88L231.913 58.1826L232.629 58.88ZM224.889 64.19L225.277 65.112L225.284 65.1087L225.292 65.1053L224.889 64.19ZM205.539 64.19L205.13 65.1023L205.138 65.1058L205.146 65.1091L205.539 64.19ZM197.889 58.97L197.173 59.6674L197.182 59.6771L197.889 58.97ZM192.849 51.23L193.775 50.8521L192.849 51.23ZM192.849 32.51L193.775 32.8879L193.778 32.8814L192.849 32.51ZM197.889 24.68L198.606 25.3774L197.889 24.68ZM205.539 19.46L205.933 20.3792L205.942 20.3753L205.539 19.46ZM224.979 19.46L224.57 20.3723L224.581 20.3773L224.592 20.382L224.979 19.46ZM232.719 24.68L232.003 25.3774L232.012 25.3871L232.719 24.68ZM237.759 32.33L236.834 32.7079V32.7079L237.759 32.33ZM231.099 34.76L230.164 35.1139L230.168 35.1248L230.173 35.1357L231.099 34.76ZM227.499 29L226.767 29.6805L226.773 29.6871L226.779 29.6936L227.499 29ZM222.009 25.04L222.425 24.1305L222.009 25.04ZM208.239 25.04L208.633 25.9591L208.644 25.9544L208.655 25.9495L208.239 25.04ZM202.839 28.91L202.094 28.244L202.092 28.2456L202.839 28.91ZM199.419 34.67L200.352 35.0325L200.355 35.0239L199.419 34.67ZM199.419 48.8L198.484 49.1539L198.488 49.1648L198.493 49.1757L199.419 48.8ZM203.019 54.56L202.286 55.2394L202.292 55.2466L202.299 55.2536L203.019 54.56ZM208.509 58.43L208.925 57.5205L208.509 58.43ZM222.279 58.52L222.673 59.4391L222.684 59.4344L222.695 59.4295L222.279 58.52ZM227.679 54.65L228.413 55.3294L227.679 54.65ZM231.189 48.98L232.121 49.3425L232.125 49.3339L231.189 48.98ZM238.559 41.69C238.559 44.859 237.955 47.8771 236.747 50.7528L238.591 51.5272C239.904 48.4029 240.559 45.121 240.559 41.69H238.559ZM236.744 50.7621C235.591 53.5862 233.981 56.0571 231.913 58.1826L233.346 59.5774C235.598 57.2629 237.348 54.5738 238.595 51.5179L236.744 50.7621ZM231.913 58.1826C229.848 60.3052 227.376 62.0034 224.487 63.2747L225.292 65.1053C228.403 63.7366 231.091 61.8948 233.346 59.5774L231.913 58.1826ZM224.502 63.268C221.633 64.473 218.526 65.08 215.169 65.08V67.08C218.773 67.08 222.146 66.427 225.277 65.112L224.502 63.268ZM215.169 65.08C211.813 65.08 208.738 64.473 205.933 63.2709L205.146 65.1091C208.221 66.427 211.566 67.08 215.169 67.08V65.08ZM205.949 63.2777C203.114 62.0047 200.666 60.3324 198.597 58.2629L197.182 59.6771C199.433 61.9276 202.085 63.7353 205.13 65.1023L205.949 63.2777ZM198.606 58.2726C196.538 56.147 194.928 53.6762 193.775 50.8521L191.924 51.6079C193.171 54.6638 194.921 57.353 197.173 59.6674L198.606 58.2726ZM193.775 50.8521C192.626 48.0368 192.049 45.0456 192.049 41.87H190.049C190.049 45.2944 190.673 48.5432 191.924 51.6079L193.775 50.8521ZM192.049 41.87C192.049 38.6944 192.626 35.7032 193.775 32.8879L191.924 32.1321C190.673 35.1968 190.049 38.4456 190.049 41.87H192.049ZM193.778 32.8814C194.931 29.9975 196.541 27.4996 198.606 25.3774L197.173 23.9826C194.918 26.3004 193.167 29.0225 191.921 32.1386L193.778 32.8814ZM198.606 25.3774C200.671 23.2549 203.111 21.5889 205.933 20.3791L205.146 18.5408C202.088 19.8511 199.428 21.6651 197.173 23.9826L198.606 25.3774ZM205.942 20.3753C208.805 19.1155 211.937 18.48 215.349 18.48V16.48C211.682 16.48 208.274 17.1645 205.137 18.5447L205.942 20.3753ZM215.349 18.48C218.7 18.48 221.769 19.1146 224.57 20.3723L225.389 18.5477C222.31 17.1654 218.959 16.48 215.349 16.48V18.48ZM224.592 20.382C227.475 21.5927 229.941 23.2584 232.003 25.3773L233.436 23.9826C231.178 21.6616 228.484 19.8473 225.367 18.538L224.592 20.382ZM232.012 25.3871C234.075 27.4493 235.682 29.8861 236.834 32.7079L238.685 31.9521C237.437 28.8939 235.684 26.2307 233.427 23.9729L232.012 25.3871ZM236.834 32.7079C237.983 35.5232 238.559 38.5144 238.559 41.69H240.559C240.559 38.2656 239.936 35.0168 238.685 31.9521L236.834 32.7079ZM233.449 41.87C233.449 39.228 232.977 36.7298 232.026 34.3843L230.173 35.1357C231.022 37.2302 231.449 39.472 231.449 41.87H233.449ZM232.035 34.4061C231.15 32.0666 229.879 30.0292 228.22 28.3064L226.779 29.6936C228.24 31.2108 229.369 33.0134 230.164 35.1139L232.035 34.4061ZM228.232 28.3195C226.582 26.5424 224.644 25.1449 222.425 24.1305L221.594 25.9495C223.575 26.8551 225.297 28.0976 226.767 29.6805L228.232 28.3195ZM222.425 24.1305C220.186 23.107 217.763 22.6 215.169 22.6V24.6C217.496 24.6 219.633 25.053 221.594 25.9495L222.425 24.1305ZM215.169 22.6C212.519 22.6 210.066 23.1056 207.824 24.1305L208.655 25.9495C210.613 25.0544 212.78 24.6 215.169 24.6V22.6ZM207.846 24.1208C205.613 25.0776 203.692 26.4533 202.094 28.244L203.585 29.576C204.987 28.0067 206.666 26.8024 208.633 25.9591L207.846 24.1208ZM202.092 28.2456C200.564 29.9651 199.363 31.9929 198.484 34.3161L200.355 35.0239C201.156 32.9071 202.235 31.0949 203.587 29.5744L202.092 28.2456ZM198.487 34.3076C197.599 36.5928 197.159 39.0569 197.159 41.69H199.159C199.159 39.2831 199.56 37.0672 200.351 35.0324L198.487 34.3076ZM197.159 41.69C197.159 44.3234 197.599 46.814 198.484 49.1539L200.355 48.4461C199.56 46.346 199.159 44.0966 199.159 41.69H197.159ZM198.493 49.1757C199.434 51.4982 200.697 53.5234 202.286 55.2394L203.753 53.8806C202.342 52.3566 201.205 50.5418 200.346 48.4243L198.493 49.1757ZM202.299 55.2536C203.949 56.9665 205.883 58.3287 208.094 59.3395L208.925 57.5205C206.936 56.6113 205.21 55.3935 203.74 53.8664L202.299 55.2536ZM208.094 59.3395C210.333 60.363 212.756 60.87 215.349 60.87V58.87C213.023 58.87 210.886 58.417 208.925 57.5205L208.094 59.3395ZM215.349 60.87C217.991 60.87 220.437 60.3978 222.673 59.4391L221.886 57.6009C219.922 58.4423 217.748 58.87 215.349 58.87V60.87ZM222.695 59.4295C224.91 58.4171 226.819 57.0508 228.413 55.3294L226.946 53.9706C225.54 55.4892 223.849 56.7029 221.864 57.6105L222.695 59.4295ZM228.413 55.3294C230.003 53.6126 231.238 51.6137 232.121 49.3424L230.257 48.6176C229.461 50.6663 228.356 52.4474 226.946 53.9706L228.413 55.3294ZM232.125 49.3339C233.01 46.994 233.449 44.5034 233.449 41.87H231.449C231.449 44.2766 231.049 46.526 230.254 48.6261L232.125 49.3339ZM255.043 65V66H256.043V65H255.043ZM248.113 65H247.113V66H248.113V65ZM248.113 18.47V17.47H247.113V18.47H248.113ZM255.043 18.47H256.043V17.47H255.043V18.47ZM255.043 26.57H254.043V30.0852L255.893 27.0964L255.043 26.57ZM261.163 20.18L261.731 21.0029L261.738 20.9984L261.744 20.9937L261.163 20.18ZM278.443 18.83L278.058 19.7531L278.067 19.7567L278.443 18.83ZM284.023 22.7L283.277 23.366L283.29 23.3801L283.303 23.3936L284.023 22.7ZM287.533 28.55L286.587 28.8737L286.591 28.8847L286.595 28.8957L287.533 28.55ZM288.793 65V66H289.793V65H288.793ZM281.863 65H280.863V66H281.863V65ZM278.533 27.56L277.783 28.221L278.533 27.56ZM263.413 24.86L263.779 25.7907L263.787 25.7875L263.795 25.784L263.413 24.86ZM259.003 27.83L259.71 28.5371L259.718 28.5289L259.726 28.5205L259.003 27.83ZM256.033 32.42L255.105 32.0486L255.099 32.0621L255.094 32.0757L256.033 32.42ZM254.043 38.36V65H256.043V38.36H254.043ZM255.043 64H248.113V66H255.043V64ZM249.113 65V18.47H247.113V65H249.113ZM248.113 19.47H255.043V17.47H248.113V19.47ZM254.043 18.47V26.57H256.043V18.47H254.043ZM255.893 27.0964C257.378 24.6975 259.321 22.6672 261.731 21.0029L260.595 19.3571C257.965 21.1728 255.828 23.4025 254.193 26.0436L255.893 27.0964ZM261.744 20.9937C264.05 19.3465 267.1 18.48 270.973 18.48V16.48C266.807 16.48 263.316 17.4135 260.582 19.3663L261.744 20.9937ZM270.973 18.48C273.688 18.48 276.043 18.9131 278.058 19.7531L278.828 17.9069C276.524 16.9469 273.899 16.48 270.973 16.48V18.48ZM278.067 19.7567C280.155 20.603 281.885 21.8073 283.277 23.366L284.769 22.034C283.161 20.2327 281.171 18.857 278.819 17.9033L278.067 19.7567ZM283.303 23.3936C284.754 24.9009 285.851 26.722 286.587 28.8737L288.479 28.2263C287.655 25.818 286.412 23.7391 284.743 22.0064L283.303 23.3936ZM286.595 28.8957C287.389 31.051 287.793 33.4521 287.793 36.11H289.793C289.793 33.2479 289.357 30.6089 288.471 28.2043L286.595 28.8957ZM287.793 36.11V65H289.793V36.11H287.793ZM288.793 64H281.863V66H288.793V64ZM282.863 65V37.82H280.863V65H282.863ZM282.863 37.82C282.863 33.3282 281.706 29.649 279.283 26.899L277.783 28.221C279.8 30.511 280.863 33.6718 280.863 37.82H282.863ZM279.283 26.899C276.83 24.1145 273.348 22.78 268.993 22.78V24.78C272.918 24.78 275.796 25.9655 277.783 28.221L279.283 26.899ZM268.993 22.78C266.889 22.78 264.898 23.1633 263.031 23.936L263.795 25.784C265.408 25.1167 267.137 24.78 268.993 24.78V22.78ZM263.047 23.9292C261.231 24.643 259.639 25.7156 258.28 27.1395L259.726 28.5205C260.887 27.3044 262.236 26.397 263.779 25.7907L263.047 23.9292ZM258.296 27.1229C256.932 28.4868 255.87 30.134 255.105 32.0486L256.962 32.7914C257.636 31.106 258.554 29.6932 259.71 28.5371L258.296 27.1229ZM255.094 32.0757C254.389 33.9991 254.043 36.0973 254.043 38.36H256.043C256.043 36.3027 256.357 34.4409 256.972 32.7643L255.094 32.0757Z" fill="white" mask="url(#path-1-outside-1_602_124)"/>
</g>
</svg>
