<svg width="444" height="81" viewBox="0 0 444 81" fill="none" xmlns="http://www.w3.org/2000/svg">
<g opacity="0.12">
<mask id="path-1-outside-1_602_133" maskUnits="userSpaceOnUse" x="-1" y="-1" width="447" height="83" fill="black">
<rect fill="white" x="-1" y="-1" width="447" height="83"/>
<path d="M48.07 23.07C48.07 26.49 47.41 29.49 46.09 32.07C44.77 34.65 42.97 36.81 40.69 38.55C38.47 40.29 35.86 41.61 32.86 42.51C29.86 43.35 26.68 43.77 23.32 43.77H8.02V66H0.910001V3H24.49C28.03 3 31.24 3.48 34.12 4.44C37.06 5.34 39.55 6.66 41.59 8.4C43.69 10.08 45.28 12.18 46.36 14.7C47.5 17.16 48.07 19.95 48.07 23.07ZM40.87 23.34C40.87 18.78 39.31 15.36 36.19 13.08C33.13 10.74 29.05 9.57 23.95 9.57H8.02V37.29H23.59C26.17 37.29 28.51 36.96 30.61 36.3C32.77 35.64 34.6 34.71 36.1 33.51C37.66 32.25 38.83 30.78 39.61 29.1C40.45 27.36 40.87 25.44 40.87 23.34ZM62.7872 39.36V66H55.8572V0.299998H62.7872V27.57C64.3472 25.05 66.3872 22.92 68.9072 21.18C71.4272 19.38 74.6972 18.48 78.7172 18.48C81.5372 18.48 84.0272 18.93 86.1872 19.83C88.4072 20.73 90.2672 22.02 91.7672 23.7C93.3272 25.32 94.4972 27.27 95.2772 29.55C96.1172 31.83 96.5372 34.35 96.5372 37.11V66H89.6072V38.82C89.6072 34.5 88.4972 31.08 86.2772 28.56C84.0572 26.04 80.8772 24.78 76.7372 24.78C74.7572 24.78 72.8972 25.14 71.1572 25.86C69.4772 26.52 68.0072 27.51 66.7472 28.83C65.4872 30.09 64.4972 31.62 63.7772 33.42C63.1172 35.22 62.7872 37.2 62.7872 39.36ZM115.416 9.3H107.496V1.65H115.416V9.3ZM114.876 66H107.946V19.47H114.876V66ZM134.519 66H127.589V0.299998H134.519V66ZM192.231 42.69C192.231 45.99 191.601 49.14 190.341 52.14C189.141 55.08 187.461 57.66 185.301 59.88C183.141 62.1 180.561 63.87 177.561 65.19C174.561 66.45 171.321 67.08 167.841 67.08C164.361 67.08 161.151 66.45 158.211 65.19C155.271 63.87 152.721 62.13 150.561 59.97C148.401 57.75 146.721 55.17 145.521 52.23C144.321 49.29 143.721 46.17 143.721 42.87C143.721 39.57 144.321 36.45 145.521 33.51C146.721 30.51 148.401 27.9 150.561 25.68C152.721 23.46 155.271 21.72 158.211 20.46C161.211 19.14 164.481 18.48 168.021 18.48C171.501 18.48 174.711 19.14 177.651 20.46C180.651 21.72 183.231 23.46 185.391 25.68C187.551 27.84 189.231 30.39 190.431 33.33C191.631 36.27 192.231 39.39 192.231 42.69ZM185.121 42.87C185.121 40.35 184.671 37.98 183.771 35.76C182.931 33.54 181.731 31.62 180.171 30C178.611 28.32 176.781 27 174.681 26.04C172.581 25.08 170.301 24.6 167.841 24.6C165.321 24.6 163.011 25.08 160.911 26.04C158.811 26.94 157.011 28.23 155.511 29.91C154.071 31.53 152.931 33.45 152.091 35.67C151.251 37.83 150.831 40.17 150.831 42.69C150.831 45.21 151.251 47.58 152.091 49.8C152.991 52.02 154.191 53.94 155.691 55.56C157.251 57.18 159.081 58.47 161.181 59.43C163.281 60.39 165.561 60.87 168.021 60.87C170.541 60.87 172.851 60.42 174.951 59.52C177.051 58.56 178.851 57.27 180.351 55.65C181.851 54.03 183.021 52.14 183.861 49.98C184.701 47.76 185.121 45.39 185.121 42.87ZM232.735 52.95C232.735 55.17 232.285 57.15 231.385 58.89C230.545 60.57 229.375 62.01 227.875 63.21C226.435 64.41 224.695 65.34 222.655 66C220.675 66.6 218.515 66.9 216.175 66.9C212.815 66.9 209.425 66.3 206.005 65.1C202.585 63.84 199.555 62.16 196.915 60.06L200.425 55.11C202.945 57.03 205.555 58.5 208.255 59.52C211.015 60.54 213.775 61.05 216.535 61.05C219.355 61.05 221.665 60.39 223.465 59.07C225.265 57.75 226.165 55.95 226.165 53.67V53.49C226.165 52.35 225.835 51.36 225.175 50.52C224.575 49.68 223.735 48.96 222.655 48.36C221.575 47.7 220.315 47.13 218.875 46.65C217.495 46.17 216.055 45.72 214.555 45.3C212.755 44.76 210.925 44.19 209.065 43.59C207.265 42.93 205.615 42.12 204.115 41.16C202.675 40.2 201.475 39 200.515 37.56C199.615 36.12 199.165 34.32 199.165 32.16V31.98C199.165 30 199.555 28.2 200.335 26.58C201.115 24.9 202.195 23.49 203.575 22.35C205.015 21.15 206.695 20.25 208.615 19.65C210.595 18.99 212.725 18.66 215.005 18.66C217.885 18.66 220.795 19.14 223.735 20.1C226.675 21 229.345 22.23 231.745 23.79L228.595 29.01C226.435 27.63 224.155 26.55 221.755 25.77C219.415 24.93 217.105 24.51 214.825 24.51C212.065 24.51 209.875 25.17 208.255 26.49C206.635 27.75 205.825 29.34 205.825 31.26V31.44C205.825 32.52 206.155 33.48 206.815 34.32C207.475 35.1 208.345 35.79 209.425 36.39C210.565 36.99 211.855 37.53 213.295 38.01C214.735 38.49 216.235 38.97 217.795 39.45C219.595 39.99 221.365 40.59 223.105 41.25C224.905 41.91 226.525 42.75 227.965 43.77C229.405 44.79 230.545 46.02 231.385 47.46C232.285 48.9 232.735 50.67 232.735 52.77V52.95ZM287.239 42.69C287.239 45.99 286.609 49.14 285.349 52.14C284.149 55.08 282.469 57.66 280.309 59.88C278.149 62.1 275.569 63.87 272.569 65.19C269.569 66.45 266.329 67.08 262.849 67.08C259.369 67.08 256.159 66.45 253.219 65.19C250.279 63.87 247.729 62.13 245.569 59.97C243.409 57.75 241.729 55.17 240.529 52.23C239.329 49.29 238.729 46.17 238.729 42.87C238.729 39.57 239.329 36.45 240.529 33.51C241.729 30.51 243.409 27.9 245.569 25.68C247.729 23.46 250.279 21.72 253.219 20.46C256.219 19.14 259.489 18.48 263.029 18.48C266.509 18.48 269.719 19.14 272.659 20.46C275.659 21.72 278.239 23.46 280.399 25.68C282.559 27.84 284.239 30.39 285.439 33.33C286.639 36.27 287.239 39.39 287.239 42.69ZM280.129 42.87C280.129 40.35 279.679 37.98 278.779 35.76C277.939 33.54 276.739 31.62 275.179 30C273.619 28.32 271.789 27 269.689 26.04C267.589 25.08 265.309 24.6 262.849 24.6C260.329 24.6 258.019 25.08 255.919 26.04C253.819 26.94 252.019 28.23 250.519 29.91C249.079 31.53 247.939 33.45 247.099 35.67C246.259 37.83 245.839 40.17 245.839 42.69C245.839 45.21 246.259 47.58 247.099 49.8C247.999 52.02 249.199 53.94 250.699 55.56C252.259 57.18 254.089 58.47 256.189 59.43C258.289 60.39 260.569 60.87 263.029 60.87C265.549 60.87 267.859 60.42 269.959 59.52C272.059 58.56 273.859 57.27 275.359 55.65C276.859 54.03 278.029 52.14 278.869 49.98C279.709 47.76 280.129 45.39 280.129 42.87ZM342.773 42.69C342.773 46.53 342.143 49.95 340.883 52.95C339.623 55.95 337.943 58.5 335.843 60.6C333.803 62.64 331.433 64.23 328.733 65.37C326.093 66.45 323.363 66.99 320.543 66.99C318.383 66.99 316.403 66.72 314.603 66.18C312.803 65.64 311.183 64.92 309.743 64.02C308.303 63.12 306.983 62.07 305.783 60.87C304.643 59.67 303.623 58.41 302.723 57.09V80.4H295.793V19.47H302.723V28.83C303.683 27.45 304.733 26.13 305.873 24.87C307.073 23.61 308.393 22.53 309.833 21.63C311.273 20.67 312.863 19.92 314.603 19.38C316.403 18.78 318.383 18.48 320.543 18.48C323.303 18.48 326.003 19.02 328.643 20.1C331.343 21.18 333.743 22.77 335.843 24.87C337.943 26.91 339.623 29.43 340.883 32.43C342.143 35.43 342.773 38.85 342.773 42.69ZM335.663 42.78C335.663 40.02 335.213 37.53 334.313 35.31C333.473 33.09 332.303 31.2 330.803 29.64C329.303 28.02 327.563 26.79 325.583 25.95C323.603 25.11 321.503 24.69 319.283 24.69C317.123 24.69 315.023 25.14 312.983 26.04C311.003 26.88 309.203 28.08 307.583 29.64C306.023 31.2 304.763 33.09 303.803 35.31C302.903 37.53 302.453 39.99 302.453 42.69C302.453 45.39 302.903 47.88 303.803 50.16C304.763 52.38 306.023 54.27 307.583 55.83C309.203 57.39 311.003 58.62 312.983 59.52C315.023 60.36 317.123 60.78 319.283 60.78C321.503 60.78 323.603 60.39 325.583 59.61C327.623 58.77 329.363 57.6 330.803 56.1C332.303 54.54 333.473 52.65 334.313 50.43C335.213 48.15 335.663 45.6 335.663 42.78ZM358.488 39.36V66H351.558V0.299998H358.488V27.57C360.048 25.05 362.088 22.92 364.608 21.18C367.128 19.38 370.398 18.48 374.418 18.48C377.238 18.48 379.728 18.93 381.888 19.83C384.108 20.73 385.968 22.02 387.468 23.7C389.028 25.32 390.198 27.27 390.978 29.55C391.818 31.83 392.238 34.35 392.238 37.11V66H385.308V38.82C385.308 34.5 384.198 31.08 381.978 28.56C379.758 26.04 376.578 24.78 372.438 24.78C370.458 24.78 368.598 25.14 366.858 25.86C365.178 26.52 363.708 27.51 362.448 28.83C361.188 30.09 360.198 31.62 359.478 33.42C358.818 35.22 358.488 37.2 358.488 39.36ZM443.909 19.47L424.379 67.53C422.399 72.33 420.179 75.72 417.719 77.7C415.319 79.68 412.379 80.67 408.899 80.67C406.979 80.67 405.239 80.46 403.679 80.04C402.119 79.68 400.559 79.11 398.999 78.33L401.339 72.84C402.479 73.44 403.589 73.86 404.669 74.1C405.809 74.4 407.129 74.55 408.629 74.55C410.729 74.55 412.499 73.92 413.939 72.66C415.379 71.4 416.789 69.12 418.169 65.82L397.019 19.47H404.669L421.589 58.26L436.529 19.47H443.909Z"/>
</mask>
<path d="M46.09 32.07L45.1998 31.6145L46.09 32.07ZM40.69 38.55L40.0833 37.755L40.0731 37.7629L40.69 38.55ZM32.86 42.51L33.1296 43.473L33.1385 43.4705L33.1474 43.4678L32.86 42.51ZM8.02 43.77V42.77H7.02V43.77H8.02ZM8.02 66V67H9.02V66H8.02ZM0.910001 66H-0.0899992V67H0.910001V66ZM0.910001 3V2H-0.0899992V3H0.910001ZM34.12 4.44L33.8038 5.38868L33.8155 5.39259L33.8273 5.3962L34.12 4.44ZM41.59 8.39999L40.9411 9.16083L40.953 9.17104L40.9653 9.18086L41.59 8.39999ZM46.36 14.7L45.4409 15.0939L45.4466 15.1073L45.4527 15.1205L46.36 14.7ZM36.19 13.08L35.5826 13.8744L35.5912 13.881L35.6 13.8874L36.19 13.08ZM8.02 9.57V8.57H7.02V9.57H8.02ZM8.02 37.29H7.02V38.29H8.02V37.29ZM30.61 36.3L30.3178 35.3436L30.3102 35.346L30.61 36.3ZM36.1 33.51L36.7247 34.2909L36.7283 34.2879L36.1 33.51ZM39.61 29.1L38.7095 28.6652L38.7062 28.672L38.703 28.6789L39.61 29.1ZM47.07 23.07C47.07 26.36 46.4357 29.1988 45.1998 31.6145L46.9802 32.5255C48.3843 29.7812 49.07 26.6199 49.07 23.07H47.07ZM45.1998 31.6145C43.947 34.0631 42.2434 36.1066 40.0833 37.7551L41.2967 39.3449C43.6966 37.5134 45.593 35.2369 46.9803 32.5255L45.1998 31.6145ZM40.0731 37.7629C37.9616 39.4179 35.4663 40.6841 32.5727 41.5522L33.1474 43.4678C36.2537 42.5359 38.9784 41.1621 41.3069 39.3371L40.0731 37.7629ZM32.5904 41.547C29.6847 42.3606 26.596 42.77 23.32 42.77V44.77C26.764 44.77 30.0353 44.3394 33.1296 43.473L32.5904 41.547ZM23.32 42.77H8.02V44.77H23.32V42.77ZM7.02 43.77V66H9.02V43.77H7.02ZM8.02 65H0.910001V67H8.02V65ZM1.91 66V3H-0.0899992V66H1.91ZM0.910001 4H24.49V2H0.910001V4ZM24.49 4C27.94 4 31.0411 4.46778 33.8038 5.38868L34.4362 3.49131C31.4389 2.49221 28.12 2 24.49 2V4ZM33.8273 5.3962C36.6555 6.26199 39.0194 7.52174 40.9411 9.16083L42.2389 7.63916C40.0806 5.79825 37.4645 4.41801 34.4127 3.4838L33.8273 5.3962ZM40.9653 9.18086C42.9342 10.756 44.4244 12.7221 45.4409 15.0939L47.2791 14.3061C46.1356 11.6379 44.4458 9.40398 42.2147 7.61913L40.9653 9.18086ZM45.4527 15.1205C46.5231 17.4302 47.07 20.0734 47.07 23.07H49.07C49.07 19.8266 48.4769 16.8898 47.2673 14.2795L45.4527 15.1205ZM41.87 23.34C41.87 18.5261 40.2062 14.7763 36.78 12.2726L35.6 13.8874C38.4138 15.9437 39.87 19.0339 39.87 23.34H41.87ZM36.7975 12.2856C33.514 9.77477 29.1986 8.57 23.95 8.57V10.57C28.9014 10.57 32.746 11.7052 35.5826 13.8744L36.7975 12.2856ZM23.95 8.57H8.02V10.57H23.95V8.57ZM7.02 9.57V37.29H9.02V9.57H7.02ZM8.02 38.29H23.59V36.29H8.02V38.29ZM23.59 38.29C26.2547 38.29 28.6978 37.9492 30.9098 37.254L30.3102 35.346C28.3222 35.9708 26.0853 36.29 23.59 36.29V38.29ZM30.9022 37.2563C33.1623 36.5658 35.1102 35.5824 36.7247 34.2909L35.4753 32.7291C34.0898 33.8376 32.3777 34.7142 30.3178 35.3437L30.9022 37.2563ZM36.7283 34.2879C38.3973 32.9399 39.6674 31.351 40.517 29.5211L38.703 28.6789C37.9926 30.209 36.9227 31.56 35.4717 32.7321L36.7283 34.2879ZM40.5106 29.5347C41.4216 27.6477 41.87 25.5773 41.87 23.34H39.87C39.87 25.3027 39.4785 27.0723 38.7095 28.6652L40.5106 29.5347ZM62.7872 66V67H63.7872V66H62.7872ZM55.8572 66H54.8572V67H55.8572V66ZM55.8572 0.299999V-0.700001H54.8572V0.299999H55.8572ZM62.7872 0.299999H63.7872V-0.700001H62.7872V0.299999ZM62.7872 27.57H61.7872V31.0852L63.6375 28.0964L62.7872 27.57ZM68.9072 21.18L69.4754 22.0029L69.4819 21.9984L69.4884 21.9937L68.9072 21.18ZM86.1872 19.83L85.8026 20.7531L85.8115 20.7567L86.1872 19.83ZM91.7672 23.7L91.0212 24.366L91.0338 24.3801L91.0469 24.3936L91.7672 23.7ZM95.2772 29.55L94.331 29.8737L94.3348 29.8847L94.3389 29.8957L95.2772 29.55ZM96.5372 66V67H97.5372V66H96.5372ZM89.6072 66H88.6072V67H89.6072V66ZM86.2772 28.56L85.5268 29.221L86.2772 28.56ZM71.1572 25.86L71.5228 26.7907L71.5312 26.7875L71.5395 26.784L71.1572 25.86ZM66.7472 28.83L67.4543 29.5371L67.4625 29.5289L67.4705 29.5205L66.7472 28.83ZM63.7772 33.42L62.8487 33.0486L62.8433 33.0621L62.8383 33.0757L63.7772 33.42ZM61.7872 39.36V66H63.7872V39.36H61.7872ZM62.7872 65H55.8572V67H62.7872V65ZM56.8572 66V0.299999H54.8572V66H56.8572ZM55.8572 1.3H62.7872V-0.700001H55.8572V1.3ZM61.7872 0.299999V27.57H63.7872V0.299999H61.7872ZM63.6375 28.0964C65.1224 25.6975 67.065 23.6672 69.4754 22.0029L68.339 20.3571C65.7094 22.1728 63.5719 24.4025 61.9369 27.0436L63.6375 28.0964ZM69.4884 21.9937C71.7946 20.3465 74.8437 19.48 78.7172 19.48V17.48C74.5507 17.48 71.0598 18.4135 68.326 20.3663L69.4884 21.9937ZM78.7172 19.48C81.4316 19.48 83.7867 19.9131 85.8026 20.7531L86.5718 18.9069C84.2677 17.9469 81.6427 17.48 78.7172 17.48V19.48ZM85.8115 20.7567C87.899 21.603 89.6295 22.8073 91.0212 24.366L92.5131 23.034C90.9048 21.2327 88.9154 19.857 86.5629 18.9033L85.8115 20.7567ZM91.0469 24.3936C92.4983 25.9009 93.5949 27.722 94.331 29.8737L96.2234 29.2263C95.3995 26.818 94.1561 24.7391 92.4875 23.0064L91.0469 24.3936ZM94.3389 29.8957C95.1329 32.051 95.5372 34.4521 95.5372 37.11H97.5372C97.5372 34.2479 97.1015 31.6089 96.2155 29.2043L94.3389 29.8957ZM95.5372 37.11V66H97.5372V37.11H95.5372ZM96.5372 65H89.6072V67H96.5372V65ZM90.6072 66V38.82H88.6072V66H90.6072ZM90.6072 38.82C90.6072 34.3282 89.4502 30.649 87.0275 27.899L85.5268 29.221C87.5442 31.511 88.6072 34.6718 88.6072 38.82H90.6072ZM87.0275 27.899C84.5746 25.1145 81.092 23.78 76.7372 23.78V25.78C80.6624 25.78 83.5398 26.9655 85.5268 29.221L87.0275 27.899ZM76.7372 23.78C74.6329 23.78 72.6423 24.1633 70.7748 24.936L71.5395 26.784C73.1521 26.1167 74.8815 25.78 76.7372 25.78V23.78ZM70.7915 24.9292C68.9747 25.643 67.383 26.7156 66.0238 28.1395L67.4705 29.5205C68.6313 28.3044 69.9796 27.397 71.5228 26.7907L70.7915 24.9292ZM66.0401 28.1229C64.6762 29.4868 63.6145 31.134 62.8487 33.0486L64.7057 33.7914C65.3798 32.106 66.2982 30.6932 67.4543 29.5371L66.0401 28.1229ZM62.8383 33.0757C62.1331 34.9991 61.7872 37.0973 61.7872 39.36H63.7872C63.7872 37.3027 64.1013 35.4409 64.7161 33.7643L62.8383 33.0757ZM115.416 9.3V10.3H116.416V9.3H115.416ZM107.496 9.3H106.496V10.3H107.496V9.3ZM107.496 1.65V0.649998H106.496V1.65H107.496ZM115.416 1.65H116.416V0.649998H115.416V1.65ZM114.876 66V67H115.876V66H114.876ZM107.946 66H106.946V67H107.946V66ZM107.946 19.47V18.47H106.946V19.47H107.946ZM114.876 19.47H115.876V18.47H114.876V19.47ZM115.416 8.3H107.496V10.3H115.416V8.3ZM108.496 9.3V1.65H106.496V9.3H108.496ZM107.496 2.65H115.416V0.649998H107.496V2.65ZM114.416 1.65V9.3H116.416V1.65H114.416ZM114.876 65H107.946V67H114.876V65ZM108.946 66V19.47H106.946V66H108.946ZM107.946 20.47H114.876V18.47H107.946V20.47ZM113.876 19.47V66H115.876V19.47H113.876ZM134.519 66V67H135.519V66H134.519ZM127.589 66H126.589V67H127.589V66ZM127.589 0.299999V-0.700001H126.589V0.299999H127.589ZM134.519 0.299999H135.519V-0.700001H134.519V0.299999ZM134.519 65H127.589V67H134.519V65ZM128.589 66V0.299999H126.589V66H128.589ZM127.589 1.3H134.519V-0.700001H127.589V1.3ZM133.519 0.299999V66H135.519V0.299999H133.519ZM190.341 52.14L189.419 51.7527L189.415 51.7621L190.341 52.14ZM185.301 59.88L184.585 59.1826L185.301 59.88ZM177.561 65.19L177.949 66.112L177.956 66.1087L177.964 66.1053L177.561 65.19ZM158.211 65.19L157.802 66.1023L157.81 66.1058L157.817 66.1091L158.211 65.19ZM150.561 59.97L149.845 60.6674L149.854 60.6771L150.561 59.97ZM145.521 52.23L146.447 51.8521L145.521 52.23ZM145.521 33.51L146.447 33.8879L146.45 33.8814L145.521 33.51ZM150.561 25.68L151.278 26.3774L150.561 25.68ZM158.211 20.46L158.605 21.3792L158.614 21.3753L158.211 20.46ZM177.651 20.46L177.242 21.3723L177.253 21.3773L177.264 21.382L177.651 20.46ZM185.391 25.68L184.675 26.3774L184.684 26.3871L185.391 25.68ZM190.431 33.33L189.505 33.7079V33.7079L190.431 33.33ZM183.771 35.76L182.836 36.1139L182.84 36.1248L182.845 36.1357L183.771 35.76ZM180.171 30L179.439 30.6805L179.445 30.6871L179.451 30.6936L180.171 30ZM174.681 26.04L175.097 25.1305L174.681 26.04ZM160.911 26.04L161.305 26.9591L161.316 26.9544L161.327 26.9495L160.911 26.04ZM155.511 29.91L154.765 29.244L154.764 29.2456L155.511 29.91ZM152.091 35.67L153.023 36.0325L153.027 36.0239L152.091 35.67ZM152.091 49.8L151.156 50.1539L151.16 50.1648L151.165 50.1757L152.091 49.8ZM155.691 55.56L154.958 56.2394L154.964 56.2466L154.971 56.2536L155.691 55.56ZM161.181 59.43L161.597 58.5205L161.181 59.43ZM174.951 59.52L175.345 60.4391L175.356 60.4344L175.367 60.4295L174.951 59.52ZM180.351 55.65L181.085 56.3294L180.351 55.65ZM183.861 49.98L184.793 50.3425L184.797 50.3339L183.861 49.98ZM191.231 42.69C191.231 45.859 190.627 48.8771 189.419 51.7528L191.263 52.5272C192.576 49.4029 193.231 46.121 193.231 42.69H191.231ZM189.415 51.7621C188.263 54.5862 186.653 57.0571 184.585 59.1826L186.018 60.5774C188.27 58.2629 190.02 55.5738 191.267 52.5179L189.415 51.7621ZM184.585 59.1826C182.519 61.3052 180.048 63.0034 177.159 64.2747L177.964 66.1053C181.075 64.7366 183.763 62.8948 186.018 60.5774L184.585 59.1826ZM177.174 64.268C174.305 65.473 171.198 66.08 167.841 66.08V68.08C171.445 68.08 174.818 67.427 177.949 66.112L177.174 64.268ZM167.841 66.08C164.485 66.08 161.41 65.473 158.605 64.2709L157.817 66.1091C160.892 67.427 164.238 68.08 167.841 68.08V66.08ZM158.621 64.2777C155.786 63.0047 153.338 61.3324 151.268 59.2629L149.854 60.6771C152.105 62.9276 154.757 64.7353 157.802 66.1023L158.621 64.2777ZM151.278 59.2726C149.21 57.147 147.6 54.6762 146.447 51.8521L144.595 52.6079C145.843 55.6638 147.593 58.353 149.845 60.6674L151.278 59.2726ZM146.447 51.8521C145.298 49.0368 144.721 46.0456 144.721 42.87H142.721C142.721 46.2944 143.345 49.5432 144.595 52.6079L146.447 51.8521ZM144.721 42.87C144.721 39.6944 145.298 36.7032 146.447 33.8879L144.595 33.1321C143.345 36.1968 142.721 39.4456 142.721 42.87H144.721ZM146.45 33.8814C147.603 30.9975 149.213 28.4996 151.278 26.3774L149.845 24.9826C147.589 27.3004 145.839 30.0225 144.593 33.1386L146.45 33.8814ZM151.278 26.3774C153.343 24.2549 155.782 22.5889 158.605 21.3791L157.817 19.5408C154.76 20.8511 152.1 22.6651 149.845 24.9826L151.278 26.3774ZM158.614 21.3753C161.477 20.1155 164.609 19.48 168.021 19.48V17.48C164.354 17.48 160.945 18.1645 157.809 19.5447L158.614 21.3753ZM168.021 19.48C171.372 19.48 174.441 20.1146 177.242 21.3723L178.061 19.5477C174.982 18.1654 171.631 17.48 168.021 17.48V19.48ZM177.264 21.382C180.147 22.5927 182.613 24.2584 184.675 26.3773L186.108 24.9826C183.85 22.6616 181.156 20.8473 178.039 19.538L177.264 21.382ZM184.684 26.3871C186.746 28.4493 188.354 30.8861 189.505 33.7079L191.357 32.9521C190.109 29.8939 188.356 27.2307 186.098 24.9729L184.684 26.3871ZM189.505 33.7079C190.655 36.5232 191.231 39.5144 191.231 42.69H193.231C193.231 39.2656 192.608 36.0168 191.357 32.9521L189.505 33.7079ZM186.121 42.87C186.121 40.228 185.649 37.7298 184.698 35.3843L182.845 36.1357C183.694 38.2302 184.121 40.472 184.121 42.87H186.121ZM184.707 35.4061C183.821 33.0666 182.551 31.0292 180.892 29.3064L179.451 30.6936C180.912 32.2108 182.041 34.0134 182.836 36.1139L184.707 35.4061ZM180.904 29.3195C179.254 27.5424 177.316 26.1449 175.097 25.1305L174.266 26.9495C176.247 27.8551 177.969 29.0976 179.439 30.6805L180.904 29.3195ZM175.097 25.1305C172.858 24.107 170.435 23.6 167.841 23.6V25.6C170.167 25.6 172.304 26.053 174.266 26.9495L175.097 25.1305ZM167.841 23.6C165.191 23.6 162.738 24.1056 160.496 25.1305L161.327 26.9495C163.285 26.0544 165.452 25.6 167.841 25.6V23.6ZM160.517 25.1208C158.285 26.0776 156.364 27.4533 154.765 29.244L156.257 30.576C157.658 29.0067 159.338 27.8024 161.305 26.9591L160.517 25.1208ZM154.764 29.2456C153.236 30.9651 152.035 32.9929 151.156 35.3161L153.027 36.0239C153.828 33.9071 154.907 32.0949 156.259 30.5744L154.764 29.2456ZM151.159 35.3076C150.271 37.5928 149.831 40.0569 149.831 42.69H151.831C151.831 40.2831 152.232 38.0672 153.023 36.0324L151.159 35.3076ZM149.831 42.69C149.831 45.3234 150.271 47.814 151.156 50.1539L153.027 49.4461C152.232 47.346 151.831 45.0966 151.831 42.69H149.831ZM151.165 50.1757C152.106 52.4982 153.369 54.5234 154.958 56.2394L156.425 54.8806C155.014 53.3566 153.877 51.5418 153.018 49.4243L151.165 50.1757ZM154.971 56.2536C156.62 57.9665 158.555 59.3287 160.766 60.3395L161.597 58.5205C159.608 57.6113 157.882 56.3935 156.412 54.8664L154.971 56.2536ZM160.766 60.3395C163.004 61.363 165.427 61.87 168.021 61.87V59.87C165.695 59.87 163.558 59.417 161.597 58.5205L160.766 60.3395ZM168.021 61.87C170.663 61.87 173.109 61.3978 175.345 60.4391L174.557 58.6009C172.594 59.4423 170.42 59.87 168.021 59.87V61.87ZM175.367 60.4295C177.582 59.4171 179.491 58.0508 181.085 56.3294L179.618 54.9706C178.211 56.4892 176.521 57.7029 174.536 58.6105L175.367 60.4295ZM181.085 56.3294C182.675 54.6126 183.91 52.6137 184.793 50.3424L182.929 49.6176C182.133 51.6663 181.028 53.4474 179.618 54.9706L181.085 56.3294ZM184.797 50.3339C185.682 47.994 186.121 45.5034 186.121 42.87H184.121C184.121 45.2766 183.721 47.526 182.926 49.6261L184.797 50.3339ZM231.385 58.89L230.497 58.4305L230.49 58.4428L231.385 58.89ZM227.875 63.21L227.25 62.4291L227.242 62.4354L227.235 62.4418L227.875 63.21ZM222.655 66L222.945 66.957L222.954 66.9543L222.963 66.9514L222.655 66ZM206.005 65.1L205.659 66.0383L205.667 66.041L205.674 66.0436L206.005 65.1ZM196.915 60.06L196.099 59.4816L195.552 60.2535L196.292 60.8426L196.915 60.06ZM200.425 55.11L201.031 54.3146L200.208 53.6874L199.609 54.5316L200.425 55.11ZM208.255 59.52L207.902 60.4555L207.908 60.458L208.255 59.52ZM223.465 59.07L222.874 58.2636L223.465 59.07ZM225.175 50.52L224.361 51.1012L224.374 51.1198L224.389 51.1378L225.175 50.52ZM222.655 48.36L222.133 49.2133L222.151 49.2241L222.169 49.2342L222.655 48.36ZM218.875 46.65L218.546 47.5946L218.559 47.5987L218.875 46.65ZM214.555 45.3L214.268 46.2578L214.276 46.2605L214.285 46.263L214.555 45.3ZM209.065 43.59L208.721 44.5289L208.739 44.5357L208.758 44.5417L209.065 43.59ZM204.115 41.16L203.56 41.9921L203.568 41.9972L203.576 42.0023L204.115 41.16ZM200.515 37.56L199.667 38.09L199.675 38.1025L199.683 38.1147L200.515 37.56ZM200.335 26.58L201.236 27.0139L201.242 27.0011L200.335 26.58ZM203.575 22.35L204.212 23.121L204.215 23.1182L203.575 22.35ZM208.615 19.65L208.913 20.6045L208.922 20.6017L208.931 20.5987L208.615 19.65ZM223.735 20.1L223.425 21.0506L223.433 21.0535L223.442 21.0562L223.735 20.1ZM231.745 23.79L232.601 24.3067L233.101 23.4786L232.29 22.9516L231.745 23.79ZM228.595 29.01L228.057 29.8527L228.921 30.405L229.451 29.5267L228.595 29.01ZM221.755 25.77L221.417 26.7112L221.431 26.7163L221.446 26.721L221.755 25.77ZM208.255 26.49L208.869 27.2794L208.878 27.2724L208.887 27.2652L208.255 26.49ZM206.815 34.32L206.029 34.9378L206.04 34.9521L206.052 34.9659L206.815 34.32ZM209.425 36.39L208.939 37.2642L208.949 37.2696L208.959 37.2749L209.425 36.39ZM213.295 38.01L213.611 37.0613L213.295 38.01ZM217.795 39.45L217.501 40.4058L217.508 40.4078L217.795 39.45ZM223.105 41.25L222.75 42.1851L222.761 42.1889L223.105 41.25ZM227.965 43.77L227.387 44.586L227.965 43.77ZM231.385 47.46L230.521 47.9639L230.529 47.9771L230.537 47.99L231.385 47.46ZM231.735 52.95C231.735 55.0316 231.314 56.8505 230.497 58.4306L232.273 59.3494C233.256 57.4495 233.735 55.3084 233.735 52.95H231.735ZM230.49 58.4428C229.717 59.9904 228.64 61.3174 227.25 62.4291L228.5 63.9909C230.11 62.7026 231.373 61.1496 232.279 59.3372L230.49 58.4428ZM227.235 62.4418C225.906 63.5492 224.283 64.4222 222.347 65.0486L222.963 66.9514C225.107 66.2578 226.964 65.2708 228.515 63.9782L227.235 62.4418ZM222.365 65.043C220.49 65.611 218.429 65.9 216.175 65.9V67.9C218.601 67.9 220.86 67.589 222.945 66.957L222.365 65.043ZM216.175 65.9C212.936 65.9 209.658 65.322 206.336 64.1564L205.674 66.0436C209.192 67.278 212.694 67.9 216.175 67.9V65.9ZM206.351 64.1617C203.023 62.9355 200.088 61.3059 197.537 59.2774L196.292 60.8426C199.022 63.0141 202.147 64.7445 205.659 66.0383L206.351 64.1617ZM197.731 60.6384L201.241 55.6884L199.609 54.5316L196.099 59.4816L197.731 60.6384ZM199.819 55.9054C202.408 57.8784 205.103 59.3981 207.902 60.4555L208.608 58.5845C206.007 57.6019 203.481 56.1816 201.031 54.3146L199.819 55.9054ZM207.908 60.458C210.772 61.5163 213.649 62.05 216.535 62.05V60.05C213.901 60.05 211.258 59.5637 208.602 58.582L207.908 60.458ZM216.535 62.05C219.511 62.05 222.044 61.3519 224.056 59.8764L222.874 58.2636C221.286 59.4281 219.199 60.05 216.535 60.05V62.05ZM224.056 59.8764C226.12 58.3633 227.165 56.2605 227.165 53.67H225.165C225.165 55.6395 224.41 57.1367 222.874 58.2636L224.056 59.8764ZM227.165 53.67V53.49H225.165V53.67H227.165ZM227.165 53.49C227.165 52.142 226.769 50.9306 225.961 49.9022L224.389 51.1378C224.901 51.7894 225.165 52.558 225.165 53.49H227.165ZM225.989 49.9388C225.287 48.9565 224.325 48.1439 223.141 47.4858L222.169 49.2342C223.145 49.7761 223.863 50.4035 224.361 51.1012L225.989 49.9388ZM223.176 47.5067C222.021 46.8004 220.689 46.2007 219.191 45.7013L218.559 47.5987C219.941 48.0593 221.129 48.5996 222.133 49.2133L223.176 47.5067ZM219.203 45.7055C217.803 45.2183 216.343 44.7622 214.825 44.337L214.285 46.263C215.767 46.6778 217.187 47.1217 218.546 47.5945L219.203 45.7055ZM214.842 44.3422C213.049 43.8042 211.226 43.2363 209.372 42.6383L208.758 44.5417C210.624 45.1437 212.461 45.7158 214.268 46.2578L214.842 44.3422ZM209.409 42.6511C207.672 42.0143 206.088 41.2357 204.654 40.3177L203.576 42.0023C205.142 43.0043 206.858 43.8457 208.721 44.5289L209.409 42.6511ZM204.67 40.3279C203.339 39.4412 202.234 38.3354 201.347 37.0053L199.683 38.1147C200.716 39.6646 202.01 40.9588 203.56 41.9921L204.67 40.3279ZM201.363 37.03C200.586 35.7869 200.165 34.183 200.165 32.16H198.165C198.165 34.457 198.644 36.4531 199.667 38.09L201.363 37.03ZM200.165 32.16V31.98H198.165V32.16H200.165ZM200.165 31.98C200.165 30.1348 200.527 28.4853 201.236 27.0138L199.434 26.1462C198.582 27.9147 198.165 29.8652 198.165 31.98H200.165ZM201.242 27.0011C201.961 25.4516 202.951 24.1626 204.212 23.121L202.938 21.579C201.439 22.8174 200.268 24.3484 199.428 26.1589L201.242 27.0011ZM204.215 23.1182C205.547 22.0081 207.109 21.1683 208.913 20.6045L208.317 18.6955C206.281 19.3317 204.483 20.2919 202.935 21.5818L204.215 23.1182ZM208.931 20.5987C210.8 19.9757 212.823 19.66 215.005 19.66V17.66C212.627 17.66 210.39 18.0043 208.299 18.7013L208.931 20.5987ZM215.005 19.66C217.772 19.66 220.577 20.1209 223.425 21.0506L224.045 19.1494C221.013 18.1591 217.998 17.66 215.005 17.66V19.66ZM223.442 21.0562C226.3 21.9309 228.884 23.1229 231.2 24.6284L232.29 22.9516C229.806 21.3371 227.05 20.0691 224.028 19.1438L223.442 21.0562ZM230.889 23.2733L227.739 28.4933L229.451 29.5267L232.601 24.3067L230.889 23.2733ZM229.133 28.1673C226.903 26.7423 224.546 25.6256 222.064 24.819L221.446 26.721C223.764 27.4744 225.967 28.5177 228.057 29.8527L229.133 28.1673ZM222.093 24.8288C219.654 23.9534 217.23 23.51 214.825 23.51V25.51C216.98 25.51 219.176 25.9066 221.417 26.7112L222.093 24.8288ZM214.825 23.51C211.909 23.51 209.472 24.2085 207.623 25.7148L208.887 27.2652C210.278 26.1315 212.221 25.51 214.825 25.51V23.51ZM207.641 25.7006C205.797 27.135 204.825 29.0076 204.825 31.26H206.825C206.825 29.6724 207.473 28.365 208.869 27.2794L207.641 25.7006ZM204.825 31.26V31.44H206.825V31.26H204.825ZM204.825 31.44C204.825 32.7414 205.229 33.9195 206.029 34.9378L207.601 33.7022C207.081 33.0405 206.825 32.2986 206.825 31.44H204.825ZM206.052 34.9659C206.804 35.8552 207.775 36.6174 208.939 37.2642L209.911 35.5158C208.915 34.9626 208.146 34.3448 207.578 33.6741L206.052 34.9659ZM208.959 37.2749C210.155 37.9042 211.496 38.4645 212.979 38.9587L213.611 37.0613C212.214 36.5955 210.975 36.0758 209.891 35.5051L208.959 37.2749ZM212.979 38.9587C214.427 39.4413 215.934 39.9237 217.501 40.4058L218.089 38.4942C216.536 38.0163 215.043 37.5387 213.611 37.0613L212.979 38.9587ZM217.508 40.4078C219.285 40.9411 221.033 41.5335 222.75 42.185L223.46 40.315C221.697 39.6465 219.905 39.0389 218.082 38.4922L217.508 40.4078ZM222.761 42.1889C224.485 42.821 226.025 43.6213 227.387 44.586L228.543 42.954C227.025 41.8787 225.325 40.999 223.449 40.3111L222.761 42.1889ZM227.387 44.586C228.717 45.5285 229.757 46.6543 230.521 47.9639L232.249 46.9561C231.333 45.3857 230.092 44.0515 228.543 42.954L227.387 44.586ZM230.537 47.99C231.316 49.2373 231.735 50.8131 231.735 52.77H233.735C233.735 50.5269 233.253 48.5627 232.233 46.93L230.537 47.99ZM231.735 52.77V52.95H233.735V52.77H231.735ZM285.349 52.14L284.427 51.7527L284.423 51.7621L285.349 52.14ZM280.309 59.88L279.592 59.1826L280.309 59.88ZM272.569 65.19L272.956 66.112L272.964 66.1087L272.972 66.1053L272.569 65.19ZM253.219 65.19L252.81 66.1023L252.817 66.1058L252.825 66.1091L253.219 65.19ZM245.569 59.97L244.852 60.6674L244.862 60.6771L245.569 59.97ZM240.529 52.23L241.455 51.8521L240.529 52.23ZM240.529 33.51L241.455 33.8879L241.458 33.8814L240.529 33.51ZM245.569 25.68L246.286 26.3774L245.569 25.68ZM253.219 20.46L253.613 21.3792L253.622 21.3753L253.219 20.46ZM272.659 20.46L272.25 21.3723L272.261 21.3773L272.272 21.382L272.659 20.46ZM280.399 25.68L279.682 26.3774L279.692 26.3871L280.399 25.68ZM285.439 33.33L284.513 33.7079V33.7079L285.439 33.33ZM278.779 35.76L277.844 36.1139L277.848 36.1248L277.852 36.1357L278.779 35.76ZM275.179 30L274.446 30.6805L274.453 30.6871L274.459 30.6936L275.179 30ZM269.689 26.04L270.105 25.1305L269.689 26.04ZM255.919 26.04L256.313 26.9591L256.324 26.9544L256.335 26.9495L255.919 26.04ZM250.519 29.91L249.773 29.244L249.772 29.2456L250.519 29.91ZM247.099 35.67L248.031 36.0325L248.034 36.0239L247.099 35.67ZM247.099 49.8L246.164 50.1539L246.168 50.1648L246.172 50.1757L247.099 49.8ZM250.699 55.56L249.965 56.2394L249.972 56.2466L249.979 56.2536L250.699 55.56ZM256.189 59.43L256.605 58.5205L256.189 59.43ZM269.959 59.52L270.353 60.4391L270.364 60.4344L270.375 60.4295L269.959 59.52ZM275.359 55.65L276.093 56.3294L275.359 55.65ZM278.869 49.98L279.801 50.3425L279.804 50.3339L278.869 49.98ZM286.239 42.69C286.239 45.859 285.635 48.8771 284.427 51.7528L286.271 52.5272C287.583 49.4029 288.239 46.121 288.239 42.69H286.239ZM284.423 51.7621C283.271 54.5862 281.661 57.0571 279.592 59.1826L281.026 60.5774C283.278 58.2629 285.028 55.5738 286.275 52.5179L284.423 51.7621ZM279.592 59.1826C277.527 61.3052 275.056 63.0034 272.166 64.2747L272.972 66.1053C276.083 64.7366 278.771 62.8948 281.026 60.5774L279.592 59.1826ZM272.182 64.268C269.313 65.473 266.206 66.08 262.849 66.08V68.08C266.453 68.08 269.825 67.427 272.956 66.112L272.182 64.268ZM262.849 66.08C259.493 66.08 256.418 65.473 253.613 64.2709L252.825 66.1091C255.9 67.427 259.246 68.08 262.849 68.08V66.08ZM253.629 64.2777C250.793 63.0047 248.346 61.3324 246.276 59.2629L244.862 60.6771C247.113 62.9276 249.765 64.7353 252.81 66.1023L253.629 64.2777ZM246.286 59.2726C244.218 57.147 242.608 54.6762 241.455 51.8521L239.603 52.6079C240.851 55.6638 242.601 58.353 244.852 60.6674L246.286 59.2726ZM241.455 51.8521C240.306 49.0368 239.729 46.0456 239.729 42.87H237.729C237.729 46.2944 238.352 49.5432 239.603 52.6079L241.455 51.8521ZM239.729 42.87C239.729 39.6944 240.306 36.7032 241.455 33.8879L239.603 33.1321C238.352 36.1968 237.729 39.4456 237.729 42.87H239.729ZM241.458 33.8814C242.611 30.9975 244.221 28.4996 246.286 26.3774L244.852 24.9826C242.597 27.3004 240.847 30.0225 239.601 33.1386L241.458 33.8814ZM246.286 26.3774C248.351 24.2549 250.79 22.5889 253.613 21.3791L252.825 19.5408C249.768 20.8511 247.107 22.6651 244.852 24.9826L246.286 26.3774ZM253.622 21.3753C256.485 20.1155 259.617 19.48 263.029 19.48V17.48C259.362 17.48 255.953 18.1645 252.816 19.5447L253.622 21.3753ZM263.029 19.48C266.379 19.48 269.448 20.1146 272.25 21.3723L273.069 19.5477C269.99 18.1654 266.639 17.48 263.029 17.48V19.48ZM272.272 21.382C275.154 22.5927 277.621 24.2584 279.682 26.3773L281.116 24.9826C278.858 22.6616 276.164 20.8473 273.046 19.538L272.272 21.382ZM279.692 26.3871C281.754 28.4493 283.362 30.8861 284.513 33.7079L286.365 32.9521C285.117 29.8939 283.364 27.2307 281.106 24.9729L279.692 26.3871ZM284.513 33.7079C285.662 36.5232 286.239 39.5144 286.239 42.69H288.239C288.239 39.2656 287.616 36.0168 286.365 32.9521L284.513 33.7079ZM281.129 42.87C281.129 40.228 280.657 37.7298 279.706 35.3843L277.852 36.1357C278.702 38.2302 279.129 40.472 279.129 42.87H281.129ZM279.714 35.4061C278.829 33.0666 277.559 31.0292 275.899 29.3064L274.459 30.6936C275.92 32.2108 277.049 34.0134 277.844 36.1139L279.714 35.4061ZM275.912 29.3195C274.262 27.5424 272.324 26.1449 270.105 25.1305L269.273 26.9495C271.255 27.8551 272.977 29.0976 274.446 30.6805L275.912 29.3195ZM270.105 25.1305C267.866 24.107 265.443 23.6 262.849 23.6V25.6C265.175 25.6 267.312 26.053 269.273 26.9495L270.105 25.1305ZM262.849 23.6C260.199 23.6 257.745 24.1056 255.503 25.1305L256.335 26.9495C258.293 26.0544 260.459 25.6 262.849 25.6V23.6ZM255.525 25.1208C253.293 26.0776 251.372 27.4533 249.773 29.244L251.265 30.576C252.666 29.0067 254.345 27.8024 256.313 26.9591L255.525 25.1208ZM249.772 29.2456C248.243 30.9651 247.043 32.9929 246.164 35.3161L248.034 36.0239C248.835 33.9071 249.915 32.0949 251.267 30.5744L249.772 29.2456ZM246.167 35.3076C245.278 37.5928 244.839 40.0569 244.839 42.69H246.839C246.839 40.2831 247.24 38.0672 248.031 36.0324L246.167 35.3076ZM244.839 42.69C244.839 45.3234 245.278 47.814 246.164 50.1539L248.034 49.4461C247.24 47.346 246.839 45.0966 246.839 42.69H244.839ZM246.172 50.1757C247.114 52.4982 248.376 54.5234 249.965 56.2394L251.433 54.8806C250.022 53.3566 248.884 51.5418 248.026 49.4243L246.172 50.1757ZM249.979 56.2536C251.628 57.9665 253.562 59.3287 255.773 60.3395L256.605 58.5205C254.616 57.6113 252.89 56.3935 251.419 54.8664L249.979 56.2536ZM255.773 60.3395C258.012 61.363 260.435 61.87 263.029 61.87V59.87C260.703 59.87 258.566 59.417 256.605 58.5205L255.773 60.3395ZM263.029 61.87C265.671 61.87 268.116 61.3978 270.353 60.4391L269.565 58.6009C267.602 59.4423 265.428 59.87 263.029 59.87V61.87ZM270.375 60.4295C272.589 59.4171 274.499 58.0508 276.093 56.3294L274.625 54.9706C273.219 56.4892 271.529 57.7029 269.543 58.6105L270.375 60.4295ZM276.093 56.3294C277.683 54.6126 278.918 52.6137 279.801 50.3424L277.937 49.6176C277.14 51.6663 276.036 53.4474 274.625 54.9706L276.093 56.3294ZM279.804 50.3339C280.69 47.994 281.129 45.5034 281.129 42.87H279.129C279.129 45.2766 278.728 47.526 277.934 49.6261L279.804 50.3339ZM340.883 52.95L339.961 52.5628L340.883 52.95ZM335.843 60.6L335.136 59.8929L335.843 60.6ZM328.733 65.37L329.111 66.2956L329.122 66.2913L328.733 65.37ZM314.603 66.18L314.89 65.2222L314.603 66.18ZM309.743 64.02L310.273 63.172L309.743 64.02ZM305.783 60.87L305.058 61.5587L305.067 61.568L305.076 61.5771L305.783 60.87ZM302.723 57.09L303.549 56.5267L301.723 53.8482V57.09H302.723ZM302.723 80.4V81.4H303.723V80.4H302.723ZM295.793 80.4H294.793V81.4H295.793V80.4ZM295.793 19.47V18.47H294.793V19.47H295.793ZM302.723 19.47H303.723V18.47H302.723V19.47ZM302.723 28.83H301.723V32.0186L303.544 29.4011L302.723 28.83ZM305.873 24.87L305.149 24.1803L305.14 24.1896L305.131 24.1991L305.873 24.87ZM309.833 21.63L310.363 22.478L310.375 22.4702L310.387 22.4621L309.833 21.63ZM314.603 19.38L314.899 20.3351L314.909 20.332L314.919 20.3287L314.603 19.38ZM328.643 20.1L328.264 21.0256L328.271 21.0285L328.643 20.1ZM335.843 24.87L335.136 25.5771L335.141 25.5822L335.146 25.5873L335.843 24.87ZM340.883 32.43L339.961 32.8172L340.883 32.43ZM334.313 35.31L333.377 35.6639L333.382 35.6749L333.386 35.6857L334.313 35.31ZM330.803 29.64L330.069 30.3194L330.075 30.3263L330.082 30.3331L330.803 29.64ZM325.583 25.95L325.973 25.0294L325.583 25.95ZM312.983 26.04L313.373 26.9606L313.38 26.9578L313.386 26.9549L312.983 26.04ZM307.583 29.64L306.889 28.9197L306.882 28.9262L306.876 28.9329L307.583 29.64ZM303.803 35.31L302.885 34.9131L302.88 34.9236L302.876 34.9343L303.803 35.31ZM303.803 50.16L302.873 50.5272L302.878 50.5421L302.885 50.5569L303.803 50.16ZM307.583 55.83L306.876 56.5371L306.882 56.5438L306.889 56.5503L307.583 55.83ZM312.983 59.52L312.569 60.4304L312.585 60.4378L312.602 60.4447L312.983 59.52ZM325.583 59.61L325.949 60.5404L325.956 60.5376L325.964 60.5347L325.583 59.61ZM330.803 56.1L330.082 55.4069L330.081 55.4075L330.803 56.1ZM334.313 50.43L333.383 50.0628L333.38 50.0695L333.377 50.0761L334.313 50.43ZM341.773 42.69C341.773 46.4206 341.161 49.7054 339.961 52.5628L341.805 53.3372C343.125 50.1946 343.773 46.6394 343.773 42.69H341.773ZM339.961 52.5628C338.746 55.4547 337.136 57.893 335.136 59.8929L336.55 61.3071C338.75 59.107 340.499 56.4453 341.805 53.3372L339.961 52.5628ZM335.136 59.8929C333.188 61.8402 330.927 63.3581 328.344 64.4488L329.122 66.2913C331.939 65.1019 334.417 63.4398 336.55 61.3071L335.136 59.8929ZM328.354 64.4445C325.833 65.4759 323.231 65.99 320.543 65.99V67.99C323.494 67.99 326.353 67.4241 329.111 66.2955L328.354 64.4445ZM320.543 65.99C318.466 65.99 316.584 65.7304 314.89 65.2222L314.315 67.1378C316.221 67.7096 318.3 67.99 320.543 67.99V65.99ZM314.89 65.2222C313.167 64.7051 311.63 64.02 310.273 63.172L309.213 64.868C310.736 65.82 312.439 66.5749 314.315 67.1378L314.89 65.2222ZM310.273 63.172C308.897 62.3121 307.636 61.3093 306.49 60.1629L305.076 61.5771C306.329 62.8307 307.709 63.9279 309.213 64.868L310.273 63.172ZM306.508 60.1813C305.403 59.0189 304.418 57.8006 303.549 56.5267L301.897 57.6533C302.828 59.0194 303.882 60.3211 305.058 61.5587L306.508 60.1813ZM301.723 57.09V80.4H303.723V57.09H301.723ZM302.723 79.4H295.793V81.4H302.723V79.4ZM296.793 80.4V19.47H294.793V80.4H296.793ZM295.793 20.47H302.723V18.47H295.793V20.47ZM301.723 19.47V28.83H303.723V19.47H301.723ZM303.544 29.4011C304.479 28.0564 305.503 26.7697 306.614 25.5409L305.131 24.1991C303.963 25.4903 302.886 26.8436 301.902 28.2589L303.544 29.4011ZM306.597 25.5597C307.74 24.3589 308.996 23.3325 310.363 22.478L309.303 20.782C307.79 21.7275 306.405 22.8611 305.149 24.1803L306.597 25.5597ZM310.387 22.4621C311.744 21.558 313.246 20.8482 314.899 20.3351L314.306 18.4249C312.48 18.9918 310.802 19.782 309.278 20.7979L310.387 22.4621ZM314.919 20.3287C316.604 19.767 318.476 19.48 320.543 19.48V17.48C318.29 17.48 316.202 17.793 314.286 18.4313L314.919 20.3287ZM320.543 19.48C323.169 19.48 325.74 19.993 328.264 21.0255L329.021 19.1744C326.265 18.047 323.437 17.48 320.543 17.48V19.48ZM328.271 21.0285C330.843 22.0571 333.129 23.5708 335.136 25.5771L336.55 24.1629C334.356 21.9692 331.843 20.3029 329.014 19.1715L328.271 21.0285ZM335.146 25.5873C337.139 27.5236 338.747 29.9274 339.961 32.8172L341.805 32.0428C340.498 28.9326 338.746 26.2964 336.54 24.1527L335.146 25.5873ZM339.961 32.8172C341.161 35.6746 341.773 38.9594 341.773 42.69H343.773C343.773 38.7406 343.125 35.1854 341.805 32.0428L339.961 32.8172ZM336.663 42.78C336.663 39.9106 336.195 37.2904 335.239 34.9343L333.386 35.6857C334.231 37.7696 334.663 40.1294 334.663 42.78H336.663ZM335.248 34.9561C334.365 32.622 333.126 30.6134 331.524 28.9469L330.082 30.3331C331.48 31.7866 332.581 33.558 333.377 35.6639L335.248 34.9561ZM331.536 28.9606C329.943 27.2397 328.087 25.9261 325.973 25.0294L325.192 26.8706C327.039 27.6539 328.662 28.8003 330.069 30.3194L331.536 28.9606ZM325.973 25.0294C323.866 24.1353 321.633 23.69 319.283 23.69V25.69C321.373 25.69 323.34 26.0847 325.192 26.8706L325.973 25.0294ZM319.283 23.69C316.979 23.69 314.742 24.1708 312.579 25.1251L313.386 26.9549C315.303 26.1092 317.266 25.69 319.283 25.69V23.69ZM312.592 25.1194C310.495 26.0093 308.593 27.2789 306.889 28.9197L308.276 30.3603C309.812 28.8811 311.511 27.7507 313.373 26.9606L312.592 25.1194ZM306.876 28.9329C305.218 30.5903 303.89 32.5885 302.885 34.9131L304.721 35.7069C305.635 33.5915 306.827 31.8097 308.29 30.3471L306.876 28.9329ZM302.876 34.9343C301.922 37.2879 301.453 39.8775 301.453 42.69H303.453C303.453 40.1025 303.884 37.7721 304.729 35.6857L302.876 34.9343ZM301.453 42.69C301.453 45.5029 301.922 48.1189 302.873 50.5272L304.733 49.7928C303.884 47.6411 303.453 45.2771 303.453 42.69H301.453ZM302.885 50.5569C303.89 52.8815 305.218 54.8797 306.876 56.5371L308.29 55.1229C306.827 53.6603 305.635 51.8785 304.721 49.7631L302.885 50.5569ZM306.889 56.5503C308.588 58.1864 310.482 59.4818 312.569 60.4304L313.397 58.6096C311.523 57.7582 309.817 56.5936 308.276 55.1097L306.889 56.5503ZM312.602 60.4447C314.76 61.3333 316.989 61.78 319.283 61.78V59.78C317.256 59.78 315.285 59.3867 313.363 58.5953L312.602 60.4447ZM319.283 61.78C321.623 61.78 323.848 61.3684 325.949 60.5404L325.216 58.6796C323.358 59.4116 321.383 59.78 319.283 59.78V61.78ZM325.964 60.5347C328.124 59.6451 329.982 58.3988 331.524 56.7925L330.081 55.4075C328.743 56.8012 327.122 57.8949 325.202 58.6853L325.964 60.5347ZM331.524 56.7931C333.126 55.1266 334.365 53.118 335.248 50.7839L333.377 50.0761C332.581 52.182 331.48 53.9534 330.082 55.4069L331.524 56.7931ZM335.243 50.7972C336.195 48.384 336.663 45.707 336.663 42.78H334.663C334.663 45.493 334.23 47.916 333.383 50.0628L335.243 50.7972ZM358.488 66V67H359.488V66H358.488ZM351.558 66H350.558V67H351.558V66ZM351.558 0.299999V-0.700001H350.558V0.299999H351.558ZM358.488 0.299999H359.488V-0.700001H358.488V0.299999ZM358.488 27.57H357.488V31.0852L359.339 28.0964L358.488 27.57ZM364.608 21.18L365.177 22.0029L365.183 21.9984L365.19 21.9937L364.608 21.18ZM381.888 19.83L381.504 20.7531L381.513 20.7567L381.888 19.83ZM387.468 23.7L386.722 24.366L386.735 24.3801L386.748 24.3936L387.468 23.7ZM390.978 29.55L390.032 29.8737L390.036 29.8847L390.04 29.8957L390.978 29.55ZM392.238 66V67H393.238V66H392.238ZM385.308 66H384.308V67H385.308V66ZM381.978 28.56L381.228 29.221L381.978 28.56ZM366.858 25.86L367.224 26.7907L367.232 26.7875L367.241 26.784L366.858 25.86ZM362.448 28.83L363.155 29.5371L363.164 29.5289L363.172 29.5205L362.448 28.83ZM359.478 33.42L358.55 33.0486L358.544 33.0621L358.539 33.0757L359.478 33.42ZM357.488 39.36V66H359.488V39.36H357.488ZM358.488 65H351.558V67H358.488V65ZM352.558 66V0.299999H350.558V66H352.558ZM351.558 1.3H358.488V-0.700001H351.558V1.3ZM357.488 0.299999V27.57H359.488V0.299999H357.488ZM359.339 28.0964C360.824 25.6975 362.766 23.6672 365.177 22.0029L364.04 20.3571C361.411 22.1728 359.273 24.4025 357.638 27.0436L359.339 28.0964ZM365.19 21.9937C367.496 20.3465 370.545 19.48 374.418 19.48V17.48C370.252 17.48 366.761 18.4135 364.027 20.3663L365.19 21.9937ZM374.418 19.48C377.133 19.48 379.488 19.9131 381.504 20.7531L382.273 18.9069C379.969 17.9469 377.344 17.48 374.418 17.48V19.48ZM381.513 20.7567C383.6 21.603 385.331 22.8073 386.722 24.366L388.214 23.034C386.606 21.2327 384.617 19.857 382.264 18.9033L381.513 20.7567ZM386.748 24.3936C388.199 25.9009 389.296 27.722 390.032 29.8737L391.925 29.2263C391.101 26.818 389.857 24.7391 388.189 23.0064L386.748 24.3936ZM390.04 29.8957C390.834 32.051 391.238 34.4521 391.238 37.11H393.238C393.238 34.2479 392.803 31.6089 391.917 29.2043L390.04 29.8957ZM391.238 37.11V66H393.238V37.11H391.238ZM392.238 65H385.308V67H392.238V65ZM386.308 66V38.82H384.308V66H386.308ZM386.308 38.82C386.308 34.3282 385.151 30.649 382.729 27.899L381.228 29.221C383.245 31.511 384.308 34.6718 384.308 38.82H386.308ZM382.729 27.899C380.276 25.1145 376.793 23.78 372.438 23.78V25.78C376.364 25.78 379.241 26.9655 381.228 29.221L382.729 27.899ZM372.438 23.78C370.334 23.78 368.343 24.1633 366.476 24.936L367.241 26.784C368.853 26.1167 370.583 25.78 372.438 25.78V23.78ZM366.493 24.9292C364.676 25.643 363.084 26.7156 361.725 28.1395L363.172 29.5205C364.332 28.3044 365.681 27.397 367.224 26.7907L366.493 24.9292ZM361.741 28.1229C360.377 29.4868 359.316 31.134 358.55 33.0486L360.407 33.7914C361.081 32.106 361.999 30.6932 363.155 29.5371L361.741 28.1229ZM358.539 33.0757C357.834 34.9991 357.488 37.0973 357.488 39.36H359.488C359.488 37.3027 359.802 35.4409 360.417 33.7643L358.539 33.0757ZM443.909 19.47L444.835 19.8465L445.395 18.47H443.909V19.47ZM424.379 67.53L425.303 67.9113L425.305 67.9065L424.379 67.53ZM417.719 77.7L417.092 76.9209L417.083 76.9286L417.719 77.7ZM403.679 80.04L403.939 79.0744L403.921 79.0697L403.904 79.0656L403.679 80.04ZM398.999 78.33L398.079 77.9379L397.71 78.8036L398.552 79.2244L398.999 78.33ZM401.339 72.84L401.805 71.9551L400.845 71.4497L400.419 72.4479L401.339 72.84ZM404.669 74.1L404.923 73.1329L404.905 73.128L404.886 73.1238L404.669 74.1ZM413.939 72.66L414.598 73.4126L413.939 72.66ZM418.169 65.82L419.092 66.2058L419.26 65.8025L419.079 65.4049L418.169 65.82ZM397.019 19.47V18.47H395.463L396.109 19.8851L397.019 19.47ZM404.669 19.47L405.586 19.0702L405.324 18.47H404.669V19.47ZM421.589 58.26L420.672 58.6598L421.646 60.893L422.522 58.6194L421.589 58.26ZM436.529 19.47V18.47H435.843L435.596 19.1106L436.529 19.47ZM442.983 19.0935L423.453 67.1535L425.305 67.9065L444.835 19.8465L442.983 19.0935ZM423.455 67.1487C421.502 71.8822 419.362 75.0937 417.092 76.921L418.346 78.479C420.996 76.3463 423.296 72.7778 425.303 67.9113L423.455 67.1487ZM417.083 76.9286C414.883 78.7432 412.176 79.67 408.899 79.67V81.67C412.582 81.67 415.755 80.6168 418.355 78.4714L417.083 76.9286ZM408.899 79.67C407.051 79.67 405.4 79.4677 403.939 79.0744L403.419 81.0056C405.078 81.4523 406.907 81.67 408.899 81.67V79.67ZM403.904 79.0656C402.427 78.7249 400.942 78.1833 399.446 77.4356L398.552 79.2244C400.176 80.0367 401.811 80.6351 403.454 81.0144L403.904 79.0656ZM399.919 78.7221L402.259 73.2321L400.419 72.4479L398.079 77.9379L399.919 78.7221ZM400.873 73.7249C402.079 74.3596 403.273 74.8141 404.452 75.0762L404.886 73.1238C403.905 72.9059 402.879 72.5204 401.805 71.9551L400.873 73.7249ZM404.414 75.0671C405.657 75.3939 407.065 75.55 408.629 75.55V73.55C407.193 73.55 405.961 73.4061 404.923 73.1329L404.414 75.0671ZM408.629 75.55C410.946 75.55 412.957 74.8481 414.598 73.4126L413.28 71.9074C412.041 72.9919 410.512 73.55 408.629 73.55V75.55ZM414.598 73.4126C416.214 71.9984 417.695 69.5447 419.092 66.2058L417.246 65.4342C415.883 68.6953 414.544 70.8016 413.28 71.9074L414.598 73.4126ZM419.079 65.4049L397.929 19.0549L396.109 19.8851L417.259 66.2351L419.079 65.4049ZM397.019 20.47H404.669V18.47H397.019V20.47ZM403.752 19.8698L420.672 58.6598L422.506 57.8602L405.586 19.0702L403.752 19.8698ZM422.522 58.6194L437.462 19.8294L435.596 19.1106L420.656 57.9006L422.522 58.6194ZM436.529 20.47H443.909V18.47H436.529V20.47Z" fill="white" mask="url(#path-1-outside-1_602_133)"/>
</g>
</svg>
